<?xml version="1.0" standalone="no"?>
<!DOCTYPE svg PUBLIC "-//W3C//DTD SVG 1.1//EN" "http://www.w3.org/Graphics/SVG/1.1/DTD/svg11.dtd" >
<svg xmlns="http://www.w3.org/2000/svg" xmlns:xlink="http://www.w3.org/1999/xlink" version="1.1">
<metadata>
This is a custom SVG webfont generated by Typotheque.
</metadata>
<defs>
<font id="typotheque_webfonts_service" horiz-adv-x="578" >
<font-face units-per-em="1000" ascent="780" descent="-220" />
<missing-glyph horiz-adv-x="236" />
<glyph unicode=" "  horiz-adv-x="236" />
<glyph unicode="&#x09;" horiz-adv-x="236" />
<glyph unicode="&#xa0;" horiz-adv-x="236" />
<glyph unicode="A" horiz-adv-x="700" d="M270 707h177l245 -707h-143l-77 229h-255l-87 -229h-139zM438 330l-85 290l-98 -290h183z" />
<glyph unicode="B" horiz-adv-x="664" d="M92 707h227q127 0 188.5 -48.5t61.5 -139.5q0 -50 -25 -86t-59 -51v-2q21 -5 45 -18t44 -34t33 -50t13 -66q0 -47 -14.5 -86t-47 -67t-84 -43.5t-125.5 -15.5h-257v707zM336 108q71 0 109 21.5t38 78.5t-40 80.5t-120 23.5h-94v-204h107zM313 409q60 0 90 22.5t30 73.5 q0 55 -35 76t-103 21h-66v-193h84z" />
<glyph unicode="C" horiz-adv-x="678" d="M430 -12q-94 0 -165.5 25t-120 71.5t-73 113.5t-24.5 151q0 85 26 153t74.5 116t119 74t159.5 26q78 0 128 -13t86 -30l-38 -101q-23 7 -42 12t-38.5 9t-41.5 6t-52 2q-51 0 -95 -14t-76.5 -44t-51 -76t-18.5 -110q0 -65 19.5 -112.5t54 -79t82 -47t104.5 -15.5 q51 0 89 6t76 17l30 -105q-45 -17 -93.5 -26t-118.5 -9z" />
<glyph unicode="D" horiz-adv-x="774" d="M92 707h229q90 0 164.5 -20.5t128 -63t83.5 -109t30 -158.5t-27.5 -159.5t-79.5 -111t-126 -64.5t-167 -21h-235v707zM338 108q129 0 190.5 60t61.5 178q0 128 -69 190.5t-203 62.5h-90v-491h110z" />
<glyph unicode="E" horiz-adv-x="600" d="M92 707h438v-108h-302v-193h280v-102h-280v-196h325v-108h-461v707z" />
<glyph unicode="F" horiz-adv-x="595" d="M92 707h464v-108h-328v-211h306v-102h-306v-286h-136v707z" />
<glyph unicode="G" horiz-adv-x="710" d="M429 -11q-88 0 -158.5 23t-120 68.5t-76.5 112.5t-27 156q0 183 98.5 275.5t284.5 92.5q39 0 69 -3.5t55 -9t45.5 -13t39.5 -15.5l-37 -102q-22 6 -41 11.5t-38.5 9.5t-42 6t-51.5 2q-50 0 -94 -13.5t-77 -43t-52 -75.5t-19 -112t20.5 -114t55.5 -79t81.5 -46t99.5 -15 q23 0 40.5 2t31.5 4v238h136v-321q-54 -20 -106.5 -29.5t-116.5 -9.5z" />
<glyph unicode="H" horiz-adv-x="790" d="M92 707h136v-299h334v299h136v-707h-136v302h-334v-302h-136v707z" />
<glyph unicode="I" horiz-adv-x="320" d="M92 707h136v-707h-136v707z" />
<glyph unicode="J" horiz-adv-x="322" d="M-51 -95q45 25 73.5 49t44 52.5t21.5 63.5t6 81v556h138v-554q0 -55 -7 -105.5t-30.5 -94.5t-69.5 -81.5t-124 -65.5z" />
<glyph unicode="K" horiz-adv-x="687" d="M92 707h136v-323l267 323h174l-289 -329l306 -378h-175l-283 374v-374h-136v707z" />
<glyph unicode="L" horiz-adv-x="544" d="M92 707h136v-597h307v-110h-443v707z" />
<glyph unicode="M" horiz-adv-x="974" d="M92 707h170l215 -594l243 594h162v-707h-137v343l6 145h-4l-193 -488h-163l-167 489h-4l8 -140v-349h-136v707z" />
<glyph unicode="N" horiz-adv-x="792" d="M92 707h162l312 -534h2l-4 83v451h137v-707h-168l-305 523h-4l4 -86v-437h-136v707z" />
<glyph unicode="O" horiz-adv-x="831" d="M407 -12q-89 0 -156.5 26t-113 74t-68.5 115.5t-23 151.5q0 83 26.5 150t75.5 114.5t119 73t157 25.5q92 0 160 -27.5t112.5 -76.5t66.5 -116t22 -145q0 -83 -25 -150.5t-73 -115t-118.5 -73.5t-161.5 -26zM410 97q63 0 107.5 20t73 54.5t42 81.5t13.5 101 q0 55 -14 101.5t-42.5 80.5t-71.5 53.5t-101 19.5q-61 0 -105 -19.5t-72.5 -53t-42 -80t-13.5 -100.5q0 -53 13 -100t41 -82.5t70.5 -56t101.5 -20.5z" />
<glyph unicode="P" horiz-adv-x="632" d="M92 707h258q57 0 104 -16t81 -46.5t52.5 -75.5t18.5 -102q0 -50 -19.5 -95t-58 -78.5t-96.5 -53t-134 -19.5h-58v107h64q81 0 120.5 36t39.5 99q0 64 -31 100t-105 36h-99v-599h-137v707z" />
<glyph unicode="Q" horiz-adv-x="831" d="M786 -180h-37t-41 0.5t-40.5 2.5t-35.5 5q-33 5 -64.5 10.5t-64.5 15.5q-27 8 -51 12t-52 4v97q37 0 65 -4.5t51 -9.5q46 -11 78 -17.5t65 -9.5q27 -5 59.5 -6t67.5 -1v-99zM407 -12q-89 0 -156.5 26t-113 74t-68.5 115.5t-23 151.5q0 83 26.5 150t75.5 114.5t119 73 t157 25.5q92 0 160 -27.5t112.5 -76.5t66.5 -116t22 -145q0 -83 -25 -150.5t-73 -115t-118.5 -73.5t-161.5 -26zM410 97q63 0 107.5 20t73 54.5t42 81.5t13.5 101q0 55 -14 101.5t-42.5 80.5t-71.5 53.5t-101 19.5q-61 0 -105 -19.5t-72.5 -53t-42 -80t-13.5 -100.5 q0 -53 13 -100t41 -82.5t70.5 -56t101.5 -20.5z" />
<glyph unicode="R" horiz-adv-x="727" d="M693 -13q-44 3 -80 16.5t-66.5 34.5t-57.5 49t-53 60l-89 114q-11 -2 -24 -2.5t-25 -0.5h-69v-258h-137v707h258q56 0 103 -13.5t81 -40.5t53 -69t19 -99q0 -60 -29 -111t-92 -81l81 -98q32 -37 67 -62.5t91 -40.5zM304 358q78 0 119.5 29.5t41.5 92.5q0 65 -32 92 t-105 27h-99v-241h75z" />
<glyph unicode="S" horiz-adv-x="569" d="M256 -12q-79 0 -132 17t-89 37l40 104q44 -19 84.5 -31.5t96.5 -12.5q62 0 101 23.5t39 69.5q0 35 -25.5 56.5t-63 38.5t-82 33.5t-82 41.5t-63 63t-25.5 97q0 48 20.5 84t53.5 60t76 36.5t88 12.5q75 0 121 -14t82 -35l-40 -101q-37 17 -73 26.5t-86 9.5 q-47 0 -77.5 -21t-30.5 -59q0 -30 25.5 -50t64 -37.5t83 -36t83 -44.5t64 -63t25.5 -92t-23.5 -95t-62 -66.5t-88.5 -39t-104 -12.5z" />
<glyph unicode="T" horiz-adv-x="615" d="M239 598h-229v109h595v-109h-229v-598h-137v598z" />
<glyph unicode="U" horiz-adv-x="780" d="M392 -13q-57 0 -113 13.5t-100 46.5t-71 87.5t-27 137.5v435h138v-429q0 -94 47 -135.5t126 -41.5q40 0 72.5 11t55 35t34.5 62t12 91v407h135v-410q0 -90 -28 -149.5t-72 -95t-99 -50.5t-110 -15z" />
<glyph unicode="V" horiz-adv-x="700" d="M7 707h145l194 -604l224 604h139l-277 -707h-179z" />
<glyph unicode="W" horiz-adv-x="1056" d="M30 707h134l136 -621l175 448l-60 173h136l199 -617l166 617h130l-208 -707h-178l-133 391l-147 -391h-181z" />
<glyph unicode="X" horiz-adv-x="658" d="M254 367l-218 340h156l141 -236l151 236h152l-231 -338l237 -369h-158l-159 265l-169 -265h-154z" />
<glyph unicode="Y" horiz-adv-x="662" d="M261 243l-250 464h157l166 -348l177 348h152l-266 -461v-246h-136v243z" />
<glyph unicode="Z" horiz-adv-x="604" d="M36 98l344 495h-318v114h483v-91l-348 -502h369v-114h-530v98z" />
<glyph unicode="&#xc1;" horiz-adv-x="700" d="M270 707h177l245 -707h-143l-77 229h-255l-87 -229h-139zM438 330l-85 290l-98 -290h183zM243 835l251 73l25 -106l-255 -57z" />
<glyph unicode="&#xc2;" horiz-adv-x="700" d="M270 707h177l245 -707h-143l-77 229h-255l-87 -229h-139zM438 330l-85 290l-98 -290h183zM175 831l179 89l176 -88l-47 -87l-130 59l-131 -59z" />
<glyph unicode="&#xc4;" horiz-adv-x="700" d="M270 707h177l245 -707h-143l-77 229h-255l-87 -229h-139zM438 330l-85 290l-98 -290h183zM157 825l83 84l84 -84l-84 -84zM382 825l84 84l83 -84l-83 -84z" />
<glyph unicode="&#xc5;" horiz-adv-x="700" d="M270 707h177l245 -707h-143l-77 229h-255l-87 -229h-139zM438 330l-85 290l-98 -290h183zM360 744q-22 0 -43.5 5t-39 17t-28 32t-10.5 50q0 28 10 48.5t26.5 34t38 20t43.5 6.5q18 0 39.5 -5t39.5 -17.5t30 -33t12 -51.5q0 -27 -9.5 -47t-26 -33t-38 -19.5t-44.5 -6.5z M358 798q26 0 39.5 13.5t15.5 37.5q0 23 -16 37t-39 14q-55 0 -55 -49q0 -24 15 -38.5t40 -14.5z" />
<glyph unicode="&#xc0;" horiz-adv-x="700" d="M188 800l25 107l252 -72l-21 -90zM270 707h177l245 -707h-143l-77 229h-255l-87 -229h-139zM438 330l-85 290l-98 -290h183z" />
<glyph unicode="&#xc3;" horiz-adv-x="700" d="M270 707h177l245 -707h-143l-77 229h-255l-87 -229h-139zM438 330l-85 290l-98 -290h183zM418 755q-18 0 -34.5 6t-32 12.5t-30 12.5t-28.5 6q-17 0 -33.5 -4.5t-36.5 -21.5l-51 63q8 9 21 20.5t29.5 22t36 18t40.5 7.5q22 0 39 -6t31.5 -13t26.5 -13t25 -6q25 0 41 6.5 t37 19.5l46 -62q-8 -9 -19.5 -20.5t-27 -22t-36 -18t-44.5 -7.5z" />
<glyph unicode="&#x1fa;" horiz-adv-x="700" d="M270 707h177l245 -707h-143l-77 229h-255l-87 -229h-139zM438 330l-85 290l-98 -290h183zM227 1022l251 73l25 -106l-255 -57zM361 722q-22 0 -43.5 5t-39 17t-28 32t-10.5 50q0 28 10 48.5t26.5 34t38 20t43.5 6.5q18 0 39.5 -5t39.5 -17.5t30 -33t12 -51.5 q0 -27 -9.5 -47t-26 -33t-38 -19.5t-44.5 -6.5zM359 776q26 0 39.5 13.5t15.5 37.5q0 23 -16 37t-39 14q-55 0 -55 -49q0 -24 15 -38.5t40 -14.5z" />
<glyph unicode="&#xc7;" horiz-adv-x="678" d="M430 -12q-94 0 -165.5 25t-120 71.5t-73 113.5t-24.5 151q0 85 26 153t74.5 116t119 74t159.5 26q78 0 128 -13t86 -30l-38 -101q-23 7 -42 12t-38.5 9t-41.5 6t-52 2q-51 0 -95 -14t-76.5 -44t-51 -76t-18.5 -110q0 -65 19.5 -112.5t54 -79t82 -47t104.5 -15.5 q51 0 89 6t76 17l30 -105q-45 -17 -93.5 -26t-118.5 -9zM301 -188q24 15 47 32t23 41q0 15 -5 31t-11 33h109q8 -17 14.5 -36.5t6.5 -39.5q0 -25 -12 -46t-31.5 -38.5t-44.5 -31t-50 -24.5z" />
<glyph unicode="&#x106;" horiz-adv-x="678" d="M430 -12q-94 0 -165.5 25t-120 71.5t-73 113.5t-24.5 151q0 85 26 153t74.5 116t119 74t159.5 26q78 0 128 -13t86 -30l-38 -101q-23 7 -42 12t-38.5 9t-41.5 6t-52 2q-51 0 -95 -14t-76.5 -44t-51 -76t-18.5 -110q0 -65 19.5 -112.5t54 -79t82 -47t104.5 -15.5 q51 0 89 6t76 17l30 -105q-45 -17 -93.5 -26t-118.5 -9zM285 835l251 73l25 -106l-255 -57z" />
<glyph unicode="&#x10c;" horiz-adv-x="678" d="M416 742l-177 89l46 87l131 -60l132 59l48 -87zM430 -12q-94 0 -165.5 25t-120 71.5t-73 113.5t-24.5 151q0 85 26 153t74.5 116t119 74t159.5 26q78 0 128 -13t86 -30l-38 -101q-23 7 -42 12t-38.5 9t-41.5 6t-52 2q-51 0 -95 -14t-76.5 -44t-51 -76t-18.5 -110 q0 -65 19.5 -112.5t54 -79t82 -47t104.5 -15.5q51 0 89 6t76 17l30 -105q-45 -17 -93.5 -26t-118.5 -9z" />
<glyph unicode="&#x110;" horiz-adv-x="803" d="M44 393h76v314h229q90 0 164.5 -20.5t128 -63t83.5 -109t30 -158.5t-27.5 -159.5t-79.5 -111t-126 -64.5t-167 -21h-235v307h-76v86zM366 108q129 0 190.5 60t61.5 178q0 128 -69 190.5t-203 62.5h-90v-206h145v-86h-145v-199h110z" />
<glyph unicode="&#xc9;" horiz-adv-x="600" d="M213 835l251 73l25 -106l-255 -57zM92 707h438v-108h-302v-193h280v-102h-280v-196h325v-108h-461v707z" />
<glyph unicode="&#xca;" horiz-adv-x="600" d="M92 707h438v-108h-302v-193h280v-102h-280v-196h325v-108h-461v707zM139 831l179 89l176 -88l-47 -87l-130 59l-131 -59z" />
<glyph unicode="&#xcb;" horiz-adv-x="600" d="M119 825l83 84l84 -84l-84 -84zM344 825l84 84l83 -84l-83 -84zM92 707h438v-108h-302v-193h280v-102h-280v-196h325v-108h-461v707z" />
<glyph unicode="&#xc8;" horiz-adv-x="600" d="M156 800l25 107l252 -72l-21 -90zM92 707h438v-108h-302v-193h280v-102h-280v-196h325v-108h-461v707z" />
<glyph unicode="&#xcd;" horiz-adv-x="320" d="M92 707h136v-707h-136v707zM70 835l251 73l25 -106l-255 -57z" />
<glyph unicode="&#xce;" horiz-adv-x="320" d="M92 707h136v-707h-136v707zM-18 831l179 89l176 -88l-47 -87l-130 59l-131 -59z" />
<glyph unicode="&#xcf;" horiz-adv-x="320" d="M92 707h136v-707h-136v707zM-37 825l83 84l84 -84l-84 -84zM188 825l84 84l83 -84l-83 -84z" />
<glyph unicode="&#xcc;" horiz-adv-x="320" d="M-23 800l25 107l252 -72l-21 -90zM92 707h136v-707h-136v707z" />
<glyph unicode="&#x13f;" horiz-adv-x="544" d="M339 383l89 88l88 -88l-88 -90zM92 707h136v-597h307v-110h-443v707z" />
<glyph unicode="&#xd1;" horiz-adv-x="792" d="M463 755q-18 0 -34.5 6t-32 12.5t-30 12.5t-28.5 6q-17 0 -33.5 -4.5t-36.5 -21.5l-51 63q8 9 21 20.5t29.5 22t36 18t40.5 7.5q22 0 39 -6t31.5 -13t26.5 -13t25 -6q25 0 41 6.5t37 19.5l46 -62q-8 -9 -19.5 -20.5t-27 -22t-36 -18t-44.5 -7.5zM92 707h162l312 -534h2 l-4 83v451h137v-707h-168l-305 523h-4l4 -86v-437h-136v707z" />
<glyph unicode="&#xd2;" horiz-adv-x="831" d="M254 800l25 107l252 -72l-21 -90zM407 -12q-89 0 -156.5 26t-113 74t-68.5 115.5t-23 151.5q0 83 26.5 150t75.5 114.5t119 73t157 25.5q92 0 160 -27.5t112.5 -76.5t66.5 -116t22 -145q0 -83 -25 -150.5t-73 -115t-118.5 -73.5t-161.5 -26zM410 97q63 0 107.5 20 t73 54.5t42 81.5t13.5 101q0 55 -14 101.5t-42.5 80.5t-71.5 53.5t-101 19.5q-61 0 -105 -19.5t-72.5 -53t-42 -80t-13.5 -100.5q0 -53 13 -100t41 -82.5t70.5 -56t101.5 -20.5z" />
<glyph unicode="&#xd6;" horiz-adv-x="831" d="M214 825l83 84l84 -84l-84 -84zM439 825l84 84l83 -84l-83 -84zM407 -12q-89 0 -156.5 26t-113 74t-68.5 115.5t-23 151.5q0 83 26.5 150t75.5 114.5t119 73t157 25.5q92 0 160 -27.5t112.5 -76.5t66.5 -116t22 -145q0 -83 -25 -150.5t-73 -115t-118.5 -73.5t-161.5 -26z M410 97q63 0 107.5 20t73 54.5t42 81.5t13.5 101q0 55 -14 101.5t-42.5 80.5t-71.5 53.5t-101 19.5q-61 0 -105 -19.5t-72.5 -53t-42 -80t-13.5 -100.5q0 -53 13 -100t41 -82.5t70.5 -56t101.5 -20.5z" />
<glyph unicode="&#xd5;" horiz-adv-x="831" d="M481 755q-18 0 -34.5 6t-32 12.5t-30 12.5t-28.5 6q-17 0 -33.5 -4.5t-36.5 -21.5l-51 63q8 9 21 20.5t29.5 22t36 18t40.5 7.5q22 0 39 -6t31.5 -13t26.5 -13t25 -6q25 0 41 6.5t37 19.5l46 -62q-8 -9 -19.5 -20.5t-27 -22t-36 -18t-44.5 -7.5zM407 -12q-89 0 -156.5 26 t-113 74t-68.5 115.5t-23 151.5q0 83 26.5 150t75.5 114.5t119 73t157 25.5q92 0 160 -27.5t112.5 -76.5t66.5 -116t22 -145q0 -83 -25 -150.5t-73 -115t-118.5 -73.5t-161.5 -26zM410 97q63 0 107.5 20t73 54.5t42 81.5t13.5 101q0 55 -14 101.5t-42.5 80.5t-71.5 53.5 t-101 19.5q-61 0 -105 -19.5t-72.5 -53t-42 -80t-13.5 -100.5q0 -53 13 -100t41 -82.5t70.5 -56t101.5 -20.5z" />
<glyph unicode="&#xd3;" horiz-adv-x="831" d="M303 835l251 73l25 -106l-255 -57zM407 -12q-89 0 -156.5 26t-113 74t-68.5 115.5t-23 151.5q0 83 26.5 150t75.5 114.5t119 73t157 25.5q92 0 160 -27.5t112.5 -76.5t66.5 -116t22 -145q0 -83 -25 -150.5t-73 -115t-118.5 -73.5t-161.5 -26zM410 97q63 0 107.5 20 t73 54.5t42 81.5t13.5 101q0 55 -14 101.5t-42.5 80.5t-71.5 53.5t-101 19.5q-61 0 -105 -19.5t-72.5 -53t-42 -80t-13.5 -100.5q0 -53 13 -100t41 -82.5t70.5 -56t101.5 -20.5z" />
<glyph unicode="&#xd4;" horiz-adv-x="831" d="M239 831l179 89l176 -88l-47 -87l-130 59l-131 -59zM407 -12q-89 0 -156.5 26t-113 74t-68.5 115.5t-23 151.5q0 83 26.5 150t75.5 114.5t119 73t157 25.5q92 0 160 -27.5t112.5 -76.5t66.5 -116t22 -145q0 -83 -25 -150.5t-73 -115t-118.5 -73.5t-161.5 -26zM410 97 q63 0 107.5 20t73 54.5t42 81.5t13.5 101q0 55 -14 101.5t-42.5 80.5t-71.5 53.5t-101 19.5q-61 0 -105 -19.5t-72.5 -53t-42 -80t-13.5 -100.5q0 -53 13 -100t41 -82.5t70.5 -56t101.5 -20.5z" />
<glyph unicode="&#xd8;" horiz-adv-x="860" d="M41 19l89 92q-71 94 -71 244q0 83 26.5 150t75.5 114.5t119 73t157 25.5q69 0 124.5 -15.5t97.5 -44.5l87 90l61 -56l-87 -90q39 -48 58.5 -111.5t19.5 -137.5q0 -83 -25 -150.5t-73 -115t-118.5 -73.5t-161.5 -26q-142 0 -231 66l-90 -93zM423 97q63 0 107.5 20t73 54.5 t42 81.5t13.5 101q0 88 -34 150l-347 -359q26 -23 62 -35.5t83 -12.5zM197 356q0 -82 30 -145l344 355q-27 20 -62 31.5t-79 11.5q-61 0 -105 -19.5t-72.5 -53t-42 -80t-13.5 -100.5z" />
<glyph unicode="&#x1fe;" horiz-adv-x="860" d="M41 19l89 92q-71 94 -71 244q0 83 26.5 150t75.5 114.5t119 73t157 25.5q69 0 124.5 -15.5t97.5 -44.5l87 90l61 -56l-87 -90q39 -48 58.5 -111.5t19.5 -137.5q0 -83 -25 -150.5t-73 -115t-118.5 -73.5t-161.5 -26q-142 0 -231 66l-90 -93zM423 97q63 0 107.5 20t73 54.5 t42 81.5t13.5 101q0 88 -34 150l-347 -359q26 -23 62 -35.5t83 -12.5zM197 356q0 -82 30 -145l344 355q-27 20 -62 31.5t-79 11.5q-61 0 -105 -19.5t-72.5 -53t-42 -80t-13.5 -100.5zM326 835l251 73l25 -106l-255 -57z" />
<glyph unicode="&#x160;" horiz-adv-x="569" d="M281 742l-177 89l46 87l131 -60l132 59l48 -87zM256 -12q-79 0 -132 17t-89 37l40 104q44 -19 84.5 -31.5t96.5 -12.5q62 0 101 23.5t39 69.5q0 35 -25.5 56.5t-63 38.5t-82 33.5t-82 41.5t-63 63t-25.5 97q0 48 20.5 84t53.5 60t76 36.5t88 12.5q75 0 121 -14t82 -35 l-40 -101q-37 17 -73 26.5t-86 9.5q-47 0 -77.5 -21t-30.5 -59q0 -30 25.5 -50t64 -37.5t83 -36t83 -44.5t64 -63t25.5 -92t-23.5 -95t-62 -66.5t-88.5 -39t-104 -12.5z" />
<glyph unicode="&#xda;" horiz-adv-x="780" d="M294 835l251 73l25 -106l-255 -57zM392 -13q-57 0 -113 13.5t-100 46.5t-71 87.5t-27 137.5v435h138v-429q0 -94 47 -135.5t126 -41.5q40 0 72.5 11t55 35t34.5 62t12 91v407h135v-410q0 -90 -28 -149.5t-72 -95t-99 -50.5t-110 -15z" />
<glyph unicode="&#xdb;" horiz-adv-x="780" d="M392 -13q-57 0 -113 13.5t-100 46.5t-71 87.5t-27 137.5v435h138v-429q0 -94 47 -135.5t126 -41.5q40 0 72.5 11t55 35t34.5 62t12 91v407h135v-410q0 -90 -28 -149.5t-72 -95t-99 -50.5t-110 -15zM217 831l179 89l176 -88l-47 -87l-130 59l-131 -59z" />
<glyph unicode="&#xd9;" horiz-adv-x="780" d="M226 800l25 107l252 -72l-21 -90zM392 -13q-57 0 -113 13.5t-100 46.5t-71 87.5t-27 137.5v435h138v-429q0 -94 47 -135.5t126 -41.5q40 0 72.5 11t55 35t34.5 62t12 91v407h135v-410q0 -90 -28 -149.5t-72 -95t-99 -50.5t-110 -15z" />
<glyph unicode="&#xdc;" horiz-adv-x="780" d="M196 825l83 84l84 -84l-84 -84zM421 825l84 84l83 -84l-83 -84zM392 -13q-57 0 -113 13.5t-100 46.5t-71 87.5t-27 137.5v435h138v-429q0 -94 47 -135.5t126 -41.5q40 0 72.5 11t55 35t34.5 62t12 91v407h135v-410q0 -90 -28 -149.5t-72 -95t-99 -50.5t-110 -15z" />
<glyph unicode="&#x178;" horiz-adv-x="662" d="M261 243l-250 464h157l166 -348l177 348h152l-266 -461v-246h-136v243zM135 825l83 84l84 -84l-84 -84zM360 825l84 84l83 -84l-83 -84z" />
<glyph unicode="&#xdd;" horiz-adv-x="662" d="M261 243l-250 464h157l166 -348l177 348h152l-266 -461v-246h-136v243zM240 835l251 73l25 -106l-255 -57z" />
<glyph unicode="&#x17d;" horiz-adv-x="604" d="M297 742l-177 89l46 87l131 -60l132 59l48 -87zM36 98l344 495h-318v114h483v-91l-348 -502h369v-114h-530v98z" />
<glyph unicode="&#xde;" horiz-adv-x="634" d="M92 707h137v-110h121q57 0 104 -15.5t81 -45.5t52.5 -74.5t18.5 -102.5q0 -50 -19.5 -94.5t-58 -77.5t-96 -52t-134.5 -19h-69v-116h-137v707zM229 223h75q81 0 121 34.5t40 97.5q0 64 -31 99t-106 35h-99v-266z" />
<glyph unicode="&#xd0;" horiz-adv-x="803" d="M44 393h76v314h229q90 0 164.5 -20.5t128 -63t83.5 -109t30 -158.5t-27.5 -159.5t-79.5 -111t-126 -64.5t-167 -21h-235v307h-76v86zM366 108q129 0 190.5 60t61.5 178q0 128 -69 190.5t-203 62.5h-90v-206h145v-86h-145v-199h110z" />
<glyph unicode="&#xc6;" horiz-adv-x="953" d="M328 707h555v-108h-302v-193h280v-102h-280v-196h325v-108h-461v270h-186l-125 -270h-154zM445 372v227h-37l-105 -227h142z" />
<glyph unicode="&#x1fc;" horiz-adv-x="953" d="M461 835l251 73l25 -106l-255 -57zM328 707h555v-108h-302v-193h280v-102h-280v-196h325v-108h-461v270h-186l-125 -270h-154zM445 372v227h-37l-105 -227h142z" />
<glyph unicode="&#x152;" horiz-adv-x="1104" d="M408 -12q-89 0 -156.5 26t-113 74t-68.5 115.5t-23 151.5q0 88 26.5 155.5t76 113.5t120 70t157.5 24q53 0 95 -10t74 -28v27h438v-108h-301v-193h279v-102h-279v-196h324v-108h-461v33q-35 -21 -79 -33t-109 -12zM411 98q66 0 111 21t74 59v350q-29 38 -73 59t-105 21 t-104.5 -19.5t-72 -53t-42 -79.5t-13.5 -100q0 -53 13 -99.5t41 -82t70 -56t101 -20.5z" />
<glyph unicode="&#x132;" horiz-adv-x="625" d="M92 707h136v-707h-136v707zM252 -95q45 25 73.5 49t44 52.5t21.5 63.5t6 81v556h138v-554q0 -55 -7 -105.5t-30.5 -94.5t-69.5 -81.5t-124 -65.5z" />
<glyph unicode="a" d="M205 -9q-77 0 -124.5 40.5t-47.5 118.5q0 52 21 85t53.5 51t72.5 25t78 7l108 1v47q0 47 -27 63.5t-82 16.5q-43 0 -82 -7t-76 -18l-27 98q45 18 94 29t115 11q108 0 161.5 -38t53.5 -125v-265q0 -20 15.5 -26.5t37.5 -7.5l-5 -101q-8 -1 -15 -1h-11q-25 0 -48.5 3 t-42 10t-31.5 19t-18 30q-31 -24 -72 -45t-101 -21zM243 95q28 0 61.5 10.5t61.5 24.5v108l-101 -4q-47 -1 -74.5 -19.5t-27.5 -54.5q0 -34 23 -49.5t57 -15.5z" />
<glyph unicode="b" horiz-adv-x="617" d="M269 -11q-60 0 -112 10.5t-88 22.5v732h133v-227q29 15 58.5 23t73.5 8q56 0 101 -14.5t76 -46.5t47.5 -82t16.5 -120q0 -86 -24 -144.5t-65 -94.5t-97 -51.5t-120 -15.5zM307 457q-32 0 -56.5 -6t-48.5 -16v-327q15 -4 37.5 -8.5t47.5 -4.5q38 0 66.5 15t47.5 42.5 t28.5 65.5t9.5 84q0 36 -6.5 64.5t-22 48.5t-41 31t-62.5 11z" />
<glyph unicode="c" horiz-adv-x="518" d="M335 -12q-80 0 -135.5 17.5t-91 51.5t-51.5 85t-16 118q0 150 76 225t210 75q54 0 94 -11t66 -25l-35 -99q-23 9 -51.5 17t-66.5 8q-37 0 -66 -9.5t-49.5 -31.5t-31 -57.5t-10.5 -87.5q0 -40 8 -71t27.5 -52.5t53 -32.5t85.5 -11q31 0 54.5 4t58.5 11l19 -103 q-17 -4 -33 -8t-33.5 -7t-37 -4.5t-44.5 -1.5z" />
<glyph unicode="d" horiz-adv-x="617" d="M276 -9q-38 0 -79 12t-76 43t-57.5 84t-22.5 135q0 78 22 134t60.5 91.5t90.5 52.5t113 17q20 0 37.5 -2t45.5 -7v203h133v-754h-133v44q-11 -9 -23.5 -18.5t-28.5 -17t-36 -12.5t-46 -5zM301 102q32 0 60.5 12t48.5 23v306q-8 2 -30 6.5t-51 4.5q-43 0 -72.5 -13.5 t-47.5 -38t-26 -57.5t-8 -72q0 -48 10 -80.5t27.5 -52.5t40 -29t48.5 -9z" />
<glyph unicode="e" horiz-adv-x="571" d="M321 -12q-63 0 -114.5 13t-88 45t-56.5 85t-20 134q0 82 20 138t55 90.5t82 50t101 15.5q63 0 107 -18.5t72 -54t40.5 -86.5t12.5 -116v-48h-356q0 -44 13 -71t35.5 -42.5t52 -21t62.5 -5.5q38 0 75 6t82 17l21 -101q-42 -14 -92 -22t-104 -8zM395 325q1 63 -23.5 100.5 t-76.5 37.5q-48 0 -80 -35t-36 -103h216z" />
<glyph unicode="f" horiz-adv-x="373" d="M107 450h-80v96h80v27q0 58 16.5 96t44 60t64 30.5t76.5 8.5q30 0 51 -3t42 -10l-21 -101q-14 3 -30.5 5.5t-36.5 2.5q-39 0 -56 -23t-17 -67v-26h117v-96h-117v-621h-133v621z" />
<glyph unicode="g" horiz-adv-x="613" d="M274 -230q-21 0 -46.5 2t-51.5 6t-51.5 10t-44.5 14l22 113q46 -14 91.5 -21t83.5 -7q28 0 52.5 4.5t42 17.5t27.5 35t10 57v25q-13 -8 -24.5 -14t-24.5 -10t-28.5 -6t-36.5 -2q-45 0 -90.5 10t-81.5 39t-59 80t-23 134q0 81 23 138.5t63 94t95 53.5t119 17 q40 0 93.5 -6.5t107.5 -19.5v-550q0 -56 -21.5 -96.5t-58.5 -66.5t-85.5 -38.5t-102.5 -12.5zM318 95q25 0 47.5 6.5t42.5 17.5v318q-12 3 -32 7.5t-47 4.5q-42 0 -71.5 -13t-48 -37t-27 -58t-8.5 -76q0 -95 38 -132.5t106 -37.5z" />
<glyph unicode="h" horiz-adv-x="636" d="M74 754h133v-268q15 12 34.5 24.5t43 23.5t50.5 18t56 7q62 0 97.5 -18t53 -47.5t21.5 -68t4 -80.5v-345h-131v330q0 31 -3.5 52.5t-13.5 35t-26.5 19.5t-42.5 6q-44 0 -80.5 -15t-62.5 -30v-398h-133v754z" />
<glyph unicode="i" horiz-adv-x="281" d="M74 546h134v-546h-134v546zM46 716l94 94l95 -94l-95 -95z" />
<glyph unicode="j" horiz-adv-x="281" d="M0 -225q-26 0 -56 6.5t-50 15.5l24 105q17 -6 38 -9.5t40 -3.5q44 0 61 25t17 81v551h133v-552q0 -67 -16.5 -109.5t-45 -67t-66 -33.5t-79.5 -9zM45 716l94 94l95 -94l-95 -95z" />
<glyph unicode="k" horiz-adv-x="575" d="M74 754h133v-446l189 238h146l-211 -253l90 -108q32 -38 63.5 -61t73.5 -34l-18 -101q-26 1 -51 5t-50.5 15t-51.5 31t-53 54l-127 165v-259h-133v754z" />
<glyph unicode="l" horiz-adv-x="281" d="M74 754h133v-754h-133v754z" />
<glyph unicode="m" horiz-adv-x="969" d="M74 546h133v-59q37 29 82.5 51t96.5 22q58 0 96 -22.5t54 -59.5q16 14 37.5 28.5t46 26.5t52 19.5t56.5 7.5q64 0 98.5 -20.5t51 -52t19.5 -69.5t3 -72v-346h-133v331q0 56 -16.5 84.5t-68.5 28.5q-35 0 -69.5 -13.5t-62.5 -31.5q3 -26 3 -52v-347h-132v331 q0 60 -16.5 86t-65.5 26q-35 0 -69.5 -12.5t-62.5 -31.5v-399h-133v546z" />
<glyph unicode="n" horiz-adv-x="636" d="M74 546h133v-58q21 15 41.5 28t43.5 22.5t49.5 15.5t58.5 6q58 0 91.5 -18.5t50.5 -48.5t21.5 -68.5t4.5 -78.5v-346h-132v331q0 62 -17 87.5t-68 25.5q-45 0 -80.5 -13.5t-63.5 -29.5v-401h-133v546z" />
<glyph unicode="o" horiz-adv-x="619" d="M304 -12q-128 0 -196 74.5t-68 205.5q0 69 19.5 123t55.5 91.5t86.5 57.5t112.5 20q134 0 199.5 -76t65.5 -210q0 -71 -20.5 -124.5t-57.5 -89.5t-87 -54t-110 -18zM311 95q40 0 65.5 14t40.5 38t20.5 56t5.5 69q0 35 -5.5 68t-20.5 58.5t-41 40.5t-66 15t-66 -15 t-41.5 -40.5t-21.5 -58.5t-6 -68q0 -38 6.5 -70.5t22.5 -56t42 -37t65 -13.5z" />
<glyph unicode="p" horiz-adv-x="621" d="M74 546h132v-41q34 24 69 39t85 15q47 0 87.5 -15.5t70 -48t46 -82.5t16.5 -120q0 -85 -24 -143t-64.5 -93.5t-92.5 -51t-109 -15.5q-26 0 -46.5 1.5t-37.5 3.5v-215h-132v766zM288 93q40 0 70 14.5t49 40.5t28.5 62t9.5 78q0 74 -30 116.5t-99 42.5q-36 0 -62.5 -10 t-47.5 -19v-317q4 0 13 -1.5t20.5 -3t24 -2.5t24.5 -1z" />
<glyph unicode="q" horiz-adv-x="614" d="M410 21q-23 -14 -50.5 -22t-68.5 -8q-40 0 -84 11t-81 41t-61 83.5t-24 139.5q0 78 21.5 134t61.5 91.5t96.5 52t126.5 16.5q52 0 102 -8t94 -22v-750h-133v241zM305 103q29 0 58.5 6.5t46.5 13.5v319q-13 4 -34.5 7.5t-46.5 3.5q-43 0 -72.5 -13t-48 -37t-26.5 -57.5 t-8 -73.5q0 -48 10 -80.5t28 -52t42 -28t51 -8.5z" />
<glyph unicode="r" horiz-adv-x="427" d="M74 546h133v-73q10 14 24.5 29t33 27t41 20t48.5 8q44 0 71 -9l-19 -110q-10 2 -17.5 3t-15.5 2t-16.5 1h-20.5q-42 0 -76.5 -19.5t-52.5 -42.5v-382h-133v546z" />
<glyph unicode="s" horiz-adv-x="482" d="M209 -12q-19 0 -41 1.5t-45 4.5t-45 7t-40 10l16 104q48 -8 87.5 -13t70.5 -5q58 0 83 15t25 38q0 22 -20.5 35.5t-51 24.5t-66 23.5t-66 32.5t-51 50t-20.5 77q0 42 17.5 73.5t47 52.5t68.5 31t83 10q39 0 82 -7.5t81 -21.5l-24 -99q-30 9 -65.5 15t-69.5 6 q-48 0 -68 -14t-20 -35q0 -22 20 -36t50.5 -26t66 -25t66 -33t50.5 -50.5t20 -77.5q0 -50 -23 -82t-58 -51.5t-77.5 -27t-82.5 -7.5z" />
<glyph unicode="t" horiz-adv-x="452" d="M285 -13q-42 0 -76.5 9t-58.5 29.5t-37 54t-13 83.5v281h-80v102h80v112h133v-112h169v-102h-169v-274q0 -41 17.5 -55t57.5 -14q25 0 54 4.5t54 11.5l15 -106q-15 -5 -33 -9.5t-37.5 -7.5t-39 -5t-36.5 -2z" />
<glyph unicode="u" horiz-adv-x="635" d="M235 -12q-57 0 -90 18.5t-50 48.5t-21.5 68.5t-4.5 79.5v343h133v-328q0 -30 3 -51t12 -35t25.5 -20.5t43.5 -6.5q45 0 81.5 14t61.5 29v398h133v-546h-133v59q-17 -12 -36.5 -25t-43 -23t-51.5 -16.5t-63 -6.5z" />
<glyph unicode="v" horiz-adv-x="567" d="M7 546h143l101 -326l31 -112l34 113l112 325h139l-206 -546h-164z" />
<glyph unicode="w" horiz-adv-x="899" d="M19 546h140l97 -440l118 440h161l102 -440l117 440h136l-172 -546h-168l-81 336l-18 85l-20 -84l-92 -337h-169z" />
<glyph unicode="x" horiz-adv-x="568" d="M208 279l-184 267h154l106 -183l107 183h151l-183 -266l199 -280h-160l-114 195l-116 -195h-157z" />
<glyph unicode="y" horiz-adv-x="564" d="M241 0h-52l-183 546h144l103 -349l26 -92l29 91l118 350h135l-267 -766h-128z" />
<glyph unicode="z" horiz-adv-x="518" d="M35 93l281 344h-261v109h418v-90l-279 -348h283v-108h-442v93z" />
<glyph unicode="&#xe1;" d="M205 -9q-77 0 -124.5 40.5t-47.5 118.5q0 52 21 85t53.5 51t72.5 25t78 7l108 1v47q0 47 -27 63.5t-82 16.5q-43 0 -82 -7t-76 -18l-27 98q45 18 94 29t115 11q108 0 161.5 -38t53.5 -125v-265q0 -20 15.5 -26.5t37.5 -7.5l-5 -101q-8 -1 -15 -1h-11q-25 0 -48.5 3 t-42 10t-31.5 19t-18 30q-31 -24 -72 -45t-101 -21zM243 95q28 0 61.5 10.5t61.5 24.5v108l-101 -4q-47 -1 -74.5 -19.5t-27.5 -54.5q0 -34 23 -49.5t57 -15.5zM173 688l219 124l47 -94l-226 -110z" />
<glyph unicode="&#xe0;" d="M205 -9q-77 0 -124.5 40.5t-47.5 118.5q0 52 21 85t53.5 51t72.5 25t78 7l108 1v47q0 47 -27 63.5t-82 16.5q-43 0 -82 -7t-76 -18l-27 98q45 18 94 29t115 11q108 0 161.5 -38t53.5 -125v-265q0 -20 15.5 -26.5t37.5 -7.5l-5 -101q-8 -1 -15 -1h-11q-25 0 -48.5 3 t-42 10t-31.5 19t-18 30q-31 -24 -72 -45t-101 -21zM243 95q28 0 61.5 10.5t61.5 24.5v108l-101 -4q-47 -1 -74.5 -19.5t-27.5 -54.5q0 -34 23 -49.5t57 -15.5zM127 719l46 95l220 -125l-42 -81z" />
<glyph unicode="&#xe2;" d="M278 702l-129 -88l-58 75l188 123l180 -123l-56 -75zM205 -9q-77 0 -124.5 40.5t-47.5 118.5q0 52 21 85t53.5 51t72.5 25t78 7l108 1v47q0 47 -27 63.5t-82 16.5q-43 0 -82 -7t-76 -18l-27 98q45 18 94 29t115 11q108 0 161.5 -38t53.5 -125v-265q0 -20 15.5 -26.5 t37.5 -7.5l-5 -101q-8 -1 -15 -1h-11q-25 0 -48.5 3t-42 10t-31.5 19t-18 30q-31 -24 -72 -45t-101 -21zM243 95q28 0 61.5 10.5t61.5 24.5v108l-101 -4q-47 -1 -74.5 -19.5t-27.5 -54.5q0 -34 23 -49.5t57 -15.5z" />
<glyph unicode="&#xe4;" d="M91 716l79 80l79 -80l-79 -80zM316 716l80 80l79 -80l-79 -80zM205 -9q-77 0 -124.5 40.5t-47.5 118.5q0 52 21 85t53.5 51t72.5 25t78 7l108 1v47q0 47 -27 63.5t-82 16.5q-43 0 -82 -7t-76 -18l-27 98q45 18 94 29t115 11q108 0 161.5 -38t53.5 -125v-265 q0 -20 15.5 -26.5t37.5 -7.5l-5 -101q-8 -1 -15 -1h-11q-25 0 -48.5 3t-42 10t-31.5 19t-18 30q-31 -24 -72 -45t-101 -21zM243 95q28 0 61.5 10.5t61.5 24.5v108l-101 -4q-47 -1 -74.5 -19.5t-27.5 -54.5q0 -34 23 -49.5t57 -15.5z" />
<glyph unicode="&#xe3;" d="M205 -9q-77 0 -124.5 40.5t-47.5 118.5q0 52 21 85t53.5 51t72.5 25t78 7l108 1v47q0 47 -27 63.5t-82 16.5q-43 0 -82 -7t-76 -18l-27 98q45 18 94 29t115 11q108 0 161.5 -38t53.5 -125v-265q0 -20 15.5 -26.5t37.5 -7.5l-5 -101q-8 -1 -15 -1h-11q-25 0 -48.5 3 t-42 10t-31.5 19t-18 30q-31 -24 -72 -45t-101 -21zM243 95q28 0 61.5 10.5t61.5 24.5v108l-101 -4q-47 -1 -74.5 -19.5t-27.5 -54.5q0 -34 23 -49.5t57 -15.5zM335 638q-18 0 -34.5 6t-32 12.5t-30 12.5t-29.5 6q-18 0 -33.5 -5t-36.5 -22l-51 64q7 8 19 19.5t28.5 22.5 t37.5 18.5t45 7.5q22 0 39 -6t31 -13t26.5 -13t26.5 -6q24 0 42 7.5t38 19.5l46 -63l-18.5 -18.5t-28 -22.5t-38 -19t-47.5 -8z" />
<glyph unicode="&#xe5;" d="M205 -9q-77 0 -124.5 40.5t-47.5 118.5q0 52 21 85t53.5 51t72.5 25t78 7l108 1v47q0 47 -27 63.5t-82 16.5q-43 0 -82 -7t-76 -18l-27 98q45 18 94 29t115 11q108 0 161.5 -38t53.5 -125v-265q0 -20 15.5 -26.5t37.5 -7.5l-5 -101q-8 -1 -15 -1h-11q-25 0 -48.5 3 t-42 10t-31.5 19t-18 30q-31 -24 -72 -45t-101 -21zM243 95q28 0 61.5 10.5t61.5 24.5v108l-101 -4q-47 -1 -74.5 -19.5t-27.5 -54.5q0 -34 23 -49.5t57 -15.5zM290 597q-24 0 -48.5 5.5t-43.5 19t-31 35.5t-12 55q0 31 11.5 54t30 38t42.5 22.5t48 7.5q20 0 43.5 -5.5 t44 -19.5t34 -37t13.5 -58q0 -30 -11 -52t-29 -36.5t-42 -21.5t-50 -7zM288 656q29 0 44 15.5t17 41.5q0 26 -17.5 41.5t-43.5 15.5q-61 0 -61 -55q0 -27 16.5 -43t44.5 -16z" />
<glyph unicode="&#x1fb;" d="M205 -9q-77 0 -124.5 40.5t-47.5 118.5q0 52 21 85t53.5 51t72.5 25t78 7l108 1v47q0 47 -27 63.5t-82 16.5q-43 0 -82 -7t-76 -18l-27 98q45 18 94 29t115 11q108 0 161.5 -38t53.5 -125v-265q0 -20 15.5 -26.5t37.5 -7.5l-5 -101q-8 -1 -15 -1h-11q-25 0 -48.5 3 t-42 10t-31.5 19t-18 30q-31 -24 -72 -45t-101 -21zM243 95q28 0 61.5 10.5t61.5 24.5v108l-101 -4q-47 -1 -74.5 -19.5t-27.5 -54.5q0 -34 23 -49.5t57 -15.5zM162 920l251 73l25 -106l-255 -57zM291 590q-24 0 -47.5 5.5t-42 18.5t-30.5 34.5t-12 53.5q0 30 11 52.5 t29.5 37.5t41.5 22t47 7q20 0 43 -5.5t42.5 -19t32.5 -36t13 -56.5q0 -29 -10.5 -50.5t-28 -35.5t-41 -21t-48.5 -7zM289 648q28 0 42.5 14.5t16.5 40.5q0 25 -17 40t-42 15q-59 0 -59 -53q0 -26 16 -41.5t43 -15.5z" />
<glyph unicode="&#xe7;" horiz-adv-x="518" d="M335 -12q-80 0 -135.5 17.5t-91 51.5t-51.5 85t-16 118q0 150 76 225t210 75q54 0 94 -11t66 -25l-35 -99q-23 9 -51.5 17t-66.5 8q-37 0 -66 -9.5t-49.5 -31.5t-31 -57.5t-10.5 -87.5q0 -40 8 -71t27.5 -52.5t53 -32.5t85.5 -11q31 0 54.5 4t58.5 11l19 -103 q-17 -4 -33 -8t-33.5 -7t-37 -4.5t-44.5 -1.5zM200 -188q24 15 47 32t23 41q0 15 -5 31t-11 33h109q8 -17 14.5 -36.5t6.5 -39.5q0 -25 -12 -46t-31.5 -38.5t-44.5 -31t-50 -24.5z" />
<glyph unicode="&#x107;" horiz-adv-x="518" d="M177 688l219 124l47 -94l-226 -110zM335 -12q-80 0 -135.5 17.5t-91 51.5t-51.5 85t-16 118q0 150 76 225t210 75q54 0 94 -11t66 -25l-35 -99q-23 9 -51.5 17t-66.5 8q-37 0 -66 -9.5t-49.5 -31.5t-31 -57.5t-10.5 -87.5q0 -40 8 -71t27.5 -52.5t53 -32.5t85.5 -11 q31 0 54.5 4t58.5 11l19 -103q-17 -4 -33 -8t-33.5 -7t-37 -4.5t-44.5 -1.5z" />
<glyph unicode="&#x10d;" horiz-adv-x="518" d="M112 733l54 74l130 -88l129 88l58 -75l-188 -123zM335 -12q-80 0 -135.5 17.5t-91 51.5t-51.5 85t-16 118q0 150 76 225t210 75q54 0 94 -11t66 -25l-35 -99q-23 9 -51.5 17t-66.5 8q-37 0 -66 -9.5t-49.5 -31.5t-31 -57.5t-10.5 -87.5q0 -40 8 -71t27.5 -52.5t53 -32.5 t85.5 -11q31 0 54.5 4t58.5 11l19 -103q-17 -4 -33 -8t-33.5 -7t-37 -4.5t-44.5 -1.5z" />
<glyph unicode="&#x111;" horiz-adv-x="617" d="M291 683h119v71h133v-71h65v-68h-65v-615h-133v44q-20 -17 -50.5 -34.5t-79.5 -17.5q-40 0 -82 11t-77 42.5t-57.5 87t-22.5 145.5q0 70 22 123t60.5 88.5t90 53t110.5 17.5q29 0 48 -2.5t38 -6.5v64h-119v68zM303 103q29 0 59 12t48 22v306q-16 4 -35.5 7.5t-48.5 3.5 q-41 0 -69.5 -13.5t-46.5 -37.5t-26.5 -57t-8.5 -71q0 -49 10 -82t27 -53t40.5 -28.5t50.5 -8.5z" />
<glyph unicode="&#xe9;" horiz-adv-x="571" d="M185 688l219 124l47 -94l-226 -110zM321 -12q-63 0 -114.5 13t-88 45t-56.5 85t-20 134q0 82 20 138t55 90.5t82 50t101 15.5q63 0 107 -18.5t72 -54t40.5 -86.5t12.5 -116v-48h-356q0 -44 13 -71t35.5 -42.5t52 -21t62.5 -5.5q38 0 75 6t82 17l21 -101q-42 -14 -92 -22 t-104 -8zM395 325q1 63 -23.5 100.5t-76.5 37.5q-48 0 -80 -35t-36 -103h216z" />
<glyph unicode="&#xe8;" horiz-adv-x="571" d="M321 -12q-63 0 -114.5 13t-88 45t-56.5 85t-20 134q0 82 20 138t55 90.5t82 50t101 15.5q63 0 107 -18.5t72 -54t40.5 -86.5t12.5 -116v-48h-356q0 -44 13 -71t35.5 -42.5t52 -21t62.5 -5.5q38 0 75 6t82 17l21 -101q-42 -14 -92 -22t-104 -8zM395 325q1 63 -23.5 100.5 t-76.5 37.5q-48 0 -80 -35t-36 -103h216zM138 719l46 95l220 -125l-42 -81z" />
<glyph unicode="&#xea;" horiz-adv-x="571" d="M289 702l-129 -88l-58 75l188 123l180 -123l-56 -75zM321 -12q-63 0 -114.5 13t-88 45t-56.5 85t-20 134q0 82 20 138t55 90.5t82 50t101 15.5q63 0 107 -18.5t72 -54t40.5 -86.5t12.5 -116v-48h-356q0 -44 13 -71t35.5 -42.5t52 -21t62.5 -5.5q38 0 75 6t82 17l21 -101 q-42 -14 -92 -22t-104 -8zM395 325q1 63 -23.5 100.5t-76.5 37.5q-48 0 -80 -35t-36 -103h216z" />
<glyph unicode="&#xeb;" horiz-adv-x="571" d="M100 716l79 80l79 -80l-79 -80zM325 716l80 80l79 -80l-79 -80zM321 -12q-63 0 -114.5 13t-88 45t-56.5 85t-20 134q0 82 20 138t55 90.5t82 50t101 15.5q63 0 107 -18.5t72 -54t40.5 -86.5t12.5 -116v-48h-356q0 -44 13 -71t35.5 -42.5t52 -21t62.5 -5.5q38 0 75 6 t82 17l21 -101q-42 -14 -92 -22t-104 -8zM395 325q1 63 -23.5 100.5t-76.5 37.5q-48 0 -80 -35t-36 -103h216z" />
<glyph unicode="&#xed;" horiz-adv-x="281" d="M34 688l219 124l47 -94l-226 -110zM74 546h134v-546h-134v546z" />
<glyph unicode="&#xec;" horiz-adv-x="281" d="M74 546h134v-546h-134v546zM-27 719l46 95l220 -125l-42 -81z" />
<glyph unicode="&#xee;" horiz-adv-x="281" d="M142 702l-129 -88l-58 75l188 123l180 -123l-56 -75zM74 546h134v-546h-134v546z" />
<glyph unicode="&#xef;" horiz-adv-x="281" d="M-48 716l79 80l79 -80l-79 -80zM177 716l80 80l79 -80l-79 -80zM74 546h134v-546h-134v546z" />
<glyph unicode="&#x140;" horiz-adv-x="437" d="M257 377l89 88l88 -88l-88 -90zM74 754h133v-754h-133v754z" />
<glyph unicode="&#xf1;" horiz-adv-x="636" d="M378 638q-18 0 -34.5 6t-32 12.5t-30 12.5t-29.5 6q-18 0 -33.5 -5t-36.5 -22l-51 64q7 8 19 19.5t28.5 22.5t37.5 18.5t45 7.5q22 0 39 -6t31 -13t26.5 -13t26.5 -6q24 0 42 7.5t38 19.5l46 -63l-18.5 -18.5t-28 -22.5t-38 -19t-47.5 -8zM74 546h133v-58q21 15 41.5 28 t43.5 22.5t49.5 15.5t58.5 6q58 0 91.5 -18.5t50.5 -48.5t21.5 -68.5t4.5 -78.5v-346h-132v331q0 62 -17 87.5t-68 25.5q-45 0 -80.5 -13.5t-63.5 -29.5v-401h-133v546z" />
<glyph unicode="&#xf3;" horiz-adv-x="619" d="M188 688l219 124l47 -94l-226 -110zM304 -12q-128 0 -196 74.5t-68 205.5q0 69 19.5 123t55.5 91.5t86.5 57.5t112.5 20q134 0 199.5 -76t65.5 -210q0 -71 -20.5 -124.5t-57.5 -89.5t-87 -54t-110 -18zM311 95q40 0 65.5 14t40.5 38t20.5 56t5.5 69q0 35 -5.5 68 t-20.5 58.5t-41 40.5t-66 15t-66 -15t-41.5 -40.5t-21.5 -58.5t-6 -68q0 -38 6.5 -70.5t22.5 -56t42 -37t65 -13.5z" />
<glyph unicode="&#xf2;" horiz-adv-x="619" d="M161 719l46 95l220 -125l-42 -81zM304 -12q-128 0 -196 74.5t-68 205.5q0 69 19.5 123t55.5 91.5t86.5 57.5t112.5 20q134 0 199.5 -76t65.5 -210q0 -71 -20.5 -124.5t-57.5 -89.5t-87 -54t-110 -18zM311 95q40 0 65.5 14t40.5 38t20.5 56t5.5 69q0 35 -5.5 68 t-20.5 58.5t-41 40.5t-66 15t-66 -15t-41.5 -40.5t-21.5 -58.5t-6 -68q0 -38 6.5 -70.5t22.5 -56t42 -37t65 -13.5z" />
<glyph unicode="&#xf4;" horiz-adv-x="619" d="M309 702l-129 -88l-58 75l188 123l180 -123l-56 -75zM304 -12q-128 0 -196 74.5t-68 205.5q0 69 19.5 123t55.5 91.5t86.5 57.5t112.5 20q134 0 199.5 -76t65.5 -210q0 -71 -20.5 -124.5t-57.5 -89.5t-87 -54t-110 -18zM311 95q40 0 65.5 14t40.5 38t20.5 56t5.5 69 q0 35 -5.5 68t-20.5 58.5t-41 40.5t-66 15t-66 -15t-41.5 -40.5t-21.5 -58.5t-6 -68q0 -38 6.5 -70.5t22.5 -56t42 -37t65 -13.5z" />
<glyph unicode="&#xf6;" horiz-adv-x="619" d="M120 716l79 80l79 -80l-79 -80zM345 716l80 80l79 -80l-79 -80zM304 -12q-128 0 -196 74.5t-68 205.5q0 69 19.5 123t55.5 91.5t86.5 57.5t112.5 20q134 0 199.5 -76t65.5 -210q0 -71 -20.5 -124.5t-57.5 -89.5t-87 -54t-110 -18zM311 95q40 0 65.5 14t40.5 38t20.5 56 t5.5 69q0 35 -5.5 68t-20.5 58.5t-41 40.5t-66 15t-66 -15t-41.5 -40.5t-21.5 -58.5t-6 -68q0 -38 6.5 -70.5t22.5 -56t42 -37t65 -13.5z" />
<glyph unicode="&#xf5;" horiz-adv-x="619" d="M304 -12q-128 0 -196 74.5t-68 205.5q0 69 19.5 123t55.5 91.5t86.5 57.5t112.5 20q134 0 199.5 -76t65.5 -210q0 -71 -20.5 -124.5t-57.5 -89.5t-87 -54t-110 -18zM311 95q40 0 65.5 14t40.5 38t20.5 56t5.5 69q0 35 -5.5 68t-20.5 58.5t-41 40.5t-66 15t-66 -15 t-41.5 -40.5t-21.5 -58.5t-6 -68q0 -38 6.5 -70.5t22.5 -56t42 -37t65 -13.5zM364 638q-18 0 -34.5 6t-32 12.5t-30 12.5t-29.5 6q-18 0 -33.5 -5t-36.5 -22l-51 64q7 8 19 19.5t28.5 22.5t37.5 18.5t45 7.5q22 0 39 -6t31 -13t26.5 -13t26.5 -6q24 0 42 7.5t38 19.5l46 -63 l-18.5 -18.5t-28 -22.5t-38 -19t-47.5 -8z" />
<glyph unicode="&#xf8;" horiz-adv-x="640" d="M313 -12q-107 0 -172 53l-62 -66l-45 43l64 68q-49 72 -49 182q0 69 19.5 123t55.5 91.5t86.5 57.5t112.5 20q108 0 174 -52l59 63l44 -43l-61 -65q25 -35 37 -83t12 -106q0 -71 -20.5 -124.5t-57.5 -89.5t-87 -54t-110 -18zM320 95q40 0 65.5 14t40.5 38t20.5 56t5.5 69 q0 23 -2.5 45.5t-8.5 42.5l-216 -230q32 -35 95 -35zM184 272q0 -49 10 -85l217 231q-15 17 -37.5 26.5t-54.5 9.5q-40 0 -66 -15t-41.5 -40.5t-21.5 -58.5t-6 -68z" />
<glyph unicode="&#x1ff;" horiz-adv-x="640" d="M313 -12q-107 0 -172 53l-62 -66l-45 43l64 68q-49 72 -49 182q0 69 19.5 123t55.5 91.5t86.5 57.5t112.5 20q108 0 174 -52l59 63l44 -43l-61 -65q25 -35 37 -83t12 -106q0 -71 -20.5 -124.5t-57.5 -89.5t-87 -54t-110 -18zM320 95q40 0 65.5 14t40.5 38t20.5 56t5.5 69 q0 23 -2.5 45.5t-8.5 42.5l-216 -230q32 -35 95 -35zM184 272q0 -49 10 -85l217 231q-15 17 -37.5 26.5t-54.5 9.5q-40 0 -66 -15t-41.5 -40.5t-21.5 -58.5t-6 -68zM209 688l219 124l47 -94l-226 -110z" />
<glyph unicode="&#x161;" horiz-adv-x="482" d="M58 733l54 74l130 -88l129 88l58 -75l-188 -123zM209 -12q-19 0 -41 1.5t-45 4.5t-45 7t-40 10l16 104q48 -8 87.5 -13t70.5 -5q58 0 83 15t25 38q0 22 -20.5 35.5t-51 24.5t-66 23.5t-66 32.5t-51 50t-20.5 77q0 42 17.5 73.5t47 52.5t68.5 31t83 10q39 0 82 -7.5 t81 -21.5l-24 -99q-30 9 -65.5 15t-69.5 6q-48 0 -68 -14t-20 -35q0 -22 20 -36t50.5 -26t66 -25t66 -33t50.5 -50.5t20 -77.5q0 -50 -23 -82t-58 -51.5t-77.5 -27t-82.5 -7.5z" />
<glyph unicode="&#xdf;" horiz-adv-x="638" d="M74 546q0 62 18 104.5t49.5 68.5t75 37.5t94.5 11.5q25 0 61.5 -6.5t70.5 -25t57.5 -52t23.5 -87.5q0 -38 -17 -67t-38 -53t-38 -45t-17 -43q0 -23 15 -38.5t37.5 -29.5t48.5 -28t48.5 -32.5t37.5 -44t15 -62.5q0 -48 -19.5 -79.5t-48.5 -51t-64.5 -27.5t-66.5 -8 q-45 0 -87.5 5t-71.5 16l17 104q32 -8 59.5 -12.5t56.5 -4.5q19 0 36 2.5t30 8t21 15t8 23.5q0 20 -15 34t-37.5 26.5t-49 26t-49 33.5t-37.5 48t-15 70q0 33 15.5 59.5t34.5 50.5t34.5 47.5t15.5 49.5q0 33 -25.5 51t-56.5 18q-28 0 -46 -8t-29 -23t-15.5 -36t-4.5 -47 v-716h-132v717z" />
<glyph unicode="&#xfa;" horiz-adv-x="635" d="M222 692l219 124l47 -94l-226 -110zM235 -12q-57 0 -90 18.5t-50 48.5t-21.5 68.5t-4.5 79.5v343h133v-328q0 -30 3 -51t12 -35t25.5 -20.5t43.5 -6.5q45 0 81.5 14t61.5 29v398h133v-546h-133v59q-17 -12 -36.5 -25t-43 -23t-51.5 -16.5t-63 -6.5z" />
<glyph unicode="&#xf9;" horiz-adv-x="635" d="M235 -12q-57 0 -90 18.5t-50 48.5t-21.5 68.5t-4.5 79.5v343h133v-328q0 -30 3 -51t12 -35t25.5 -20.5t43.5 -6.5q45 0 81.5 14t61.5 29v398h133v-546h-133v59q-17 -12 -36.5 -25t-43 -23t-51.5 -16.5t-63 -6.5zM149 719l46 95l220 -125l-42 -81z" />
<glyph unicode="&#xfb;" horiz-adv-x="635" d="M317 702l-129 -88l-58 75l188 123l180 -123l-56 -75zM235 -12q-57 0 -90 18.5t-50 48.5t-21.5 68.5t-4.5 79.5v343h133v-328q0 -30 3 -51t12 -35t25.5 -20.5t43.5 -6.5q45 0 81.5 14t61.5 29v398h133v-546h-133v59q-17 -12 -36.5 -25t-43 -23t-51.5 -16.5t-63 -6.5z" />
<glyph unicode="&#xfc;" horiz-adv-x="635" d="M127 716l79 80l79 -80l-79 -80zM352 716l80 80l79 -80l-79 -80zM235 -12q-57 0 -90 18.5t-50 48.5t-21.5 68.5t-4.5 79.5v343h133v-328q0 -30 3 -51t12 -35t25.5 -20.5t43.5 -6.5q45 0 81.5 14t61.5 29v398h133v-546h-133v59q-17 -12 -36.5 -25t-43 -23t-51.5 -16.5 t-63 -6.5z" />
<glyph unicode="&#xff;" horiz-adv-x="564" d="M93 716l79 80l79 -80l-79 -80zM318 716l80 80l79 -80l-79 -80zM241 0h-52l-183 546h144l103 -349l26 -92l29 91l118 350h135l-267 -766h-128z" />
<glyph unicode="&#xfd;" horiz-adv-x="564" d="M241 0h-52l-183 546h144l103 -349l26 -92l29 91l118 350h135l-267 -766h-128zM189 688l219 124l47 -94l-226 -110z" />
<glyph unicode="&#x17e;" horiz-adv-x="518" d="M70 733l54 74l130 -88l129 88l58 -75l-188 -123zM35 93l281 344h-261v109h418v-90l-279 -348h283v-108h-442v93z" />
<glyph unicode="&#xfe;" horiz-adv-x="621" d="M74 754h132v-249q10 8 25.5 17t34.5 17t39.5 13.5t40.5 5.5q110 0 172 -62.5t62 -200.5q0 -86 -24 -144t-64.5 -94t-92.5 -51.5t-109 -15.5q-25 0 -46 1.5t-38 3.5v-215h-132v974zM294 94q37 0 65 14.5t47 40t28.5 60t9.5 75.5q0 78 -30 120t-106 42q-14 0 -29 -3.5 t-29 -8t-25.5 -9t-18.5 -7.5v-317q14 -2 35.5 -4.5t52.5 -2.5z" />
<glyph unicode="&#xf0;" horiz-adv-x="632" d="M305 -11q-128 0 -196 70.5t-68 201.5q0 64 20.5 115.5t56.5 88t84 56.5t104 20q29 0 51 -5.5t44 -16.5q-17 28 -40 53t-46 44l-74 -59l-44 48l63 49q-19 11 -37 20.5t-35 17.5l69 85q20 -8 44 -19t50 -27l73 58l43 -48l-61 -48q35 -30 66.5 -67.5t55 -87.5t37.5 -114.5 t14 -147.5q0 -68 -19 -121t-55 -90t-86.5 -56.5t-113.5 -19.5zM312 96q40 0 65.5 12.5t40.5 35t20.5 53.5t5.5 68q0 36 -7 67t-23.5 54t-43.5 36t-67 13q-37 0 -61.5 -13.5t-39 -36.5t-20.5 -54t-6 -66q0 -38 6.5 -69t22.5 -53.5t42 -34.5t65 -12z" />
<glyph unicode="&#xe6;" horiz-adv-x="893" d="M646 -9q-79 0 -138.5 19.5t-96.5 68.5q-13 -11 -33.5 -26t-46.5 -28.5t-57.5 -23t-65.5 -9.5q-84 0 -129.5 39.5t-45.5 119.5q0 52 21 83.5t53.5 48.5t72.5 23t78 7q25 0 46 1q18 1 36 1.5t26 0.5v56q0 48 -28 61t-87 13q-39 0 -80.5 -8.5t-71.5 -15.5l-27 98 q37 14 88.5 26.5t114.5 12.5q55 0 104 -9.5t80 -44.5q34 29 77.5 41.5t95.5 12.5q58 0 100 -19t69 -54t40 -85t13 -113v-44l-357 -10q0 -44 13.5 -71t36.5 -41.5t54.5 -19.5t68.5 -5q14 0 33 2t39 5t39.5 6.5t36.5 6.5l19 -99q-37 -12 -87 -19.5t-104 -7.5zM232 95 q14 0 33 4t39.5 10t40.5 13.5t37 15.5q-6 19 -10 42.5t-6 49.5l-100 -2q-31 -1 -51 -7t-31.5 -15.5t-16 -21.5t-4.5 -25q0 -35 19.5 -49.5t49.5 -14.5zM716 333q2 60 -25.5 94.5t-70.5 34.5q-22 0 -43 -7.5t-37.5 -24t-26.5 -43t-11 -63.5z" />
<glyph unicode="&#x1fd;" horiz-adv-x="893" d="M336 688l219 124l47 -94l-226 -110zM646 -9q-79 0 -138.5 19.5t-96.5 68.5q-13 -11 -33.5 -26t-46.5 -28.5t-57.5 -23t-65.5 -9.5q-84 0 -129.5 39.5t-45.5 119.5q0 52 21 83.5t53.5 48.5t72.5 23t78 7q25 0 46 1q18 1 36 1.5t26 0.5v56q0 48 -28 61t-87 13 q-39 0 -80.5 -8.5t-71.5 -15.5l-27 98q37 14 88.5 26.5t114.5 12.5q55 0 104 -9.5t80 -44.5q34 29 77.5 41.5t95.5 12.5q58 0 100 -19t69 -54t40 -85t13 -113v-44l-357 -10q0 -44 13.5 -71t36.5 -41.5t54.5 -19.5t68.5 -5q14 0 33 2t39 5t39.5 6.5t36.5 6.5l19 -99 q-37 -12 -87 -19.5t-104 -7.5zM232 95q14 0 33 4t39.5 10t40.5 13.5t37 15.5q-6 19 -10 42.5t-6 49.5l-100 -2q-31 -1 -51 -7t-31.5 -15.5t-16 -21.5t-4.5 -25q0 -35 19.5 -49.5t49.5 -14.5zM716 333q2 60 -25.5 94.5t-70.5 34.5q-22 0 -43 -7.5t-37.5 -24t-26.5 -43 t-11 -63.5z" />
<glyph unicode="&#x153;" horiz-adv-x="972" d="M304 -12q-128 0 -196 74.5t-68 205.5q0 69 19.5 123t55.5 91.5t86 57.5t111 20q134 0 198 -81q35 43 86 61.5t114 18.5q59 0 101 -19t69 -54.5t39.5 -86.5t12.5 -115v-48h-356q0 -42 11.5 -69t33 -42.5t52.5 -22t70 -6.5q14 0 33.5 2t40.5 5t41.5 7t36.5 8l22 -105 q-34 -11 -85 -17t-108 -6q-73 0 -129.5 17.5t-91.5 62.5q-35 -42 -86 -62t-113 -20zM311 95q40 0 65.5 14t40.5 38t20.5 56.5t5.5 69.5q0 35 -5.5 67.5t-20.5 58t-41 40.5t-67 15q-40 0 -66 -15t-41 -40.5t-21 -58.5t-6 -68q0 -38 6.5 -70.5t22.5 -56t42 -37t65 -13.5z M795 325q-1 63 -26.5 101.5t-73.5 38.5t-79.5 -35.5t-36.5 -104.5h216z" />
<glyph unicode="&#x133;" horiz-adv-x="567" d="M286 -225q-26 0 -56 6.5t-50 15.5l24 105q17 -6 38 -9.5t40 -3.5q44 0 61 25t17 81v551h133v-552q0 -67 -16.5 -109.5t-45 -67t-66 -33.5t-79.5 -9zM74 546h134v-546h-134v546zM46 716l94 94l95 -94l-95 -95zM334 716l94 94l95 -94l-95 -95z" />
<glyph unicode="," horiz-adv-x="259" d="M33 -130q7 15 12.5 36t9 43t5 44t1.5 40v100h139v-63q0 -61 -14 -111.5t-38 -88.5h-115v0z" />
<glyph unicode="." horiz-adv-x="272" d="M61 136h151v-136h-151v136z" />
<glyph unicode=":" horiz-adv-x="309" d="M79 136h151v-136h-151v136zM79 546h151v-136h-151v136z" />
<glyph unicode=";" horiz-adv-x="308" d="M50 -130q20 38 25.5 78t5.5 63v122h147v-84q0 -54 -16.5 -99.5t-42.5 -79.5h-119zM78 546h151v-136h-151v136z" />
<glyph unicode="?" horiz-adv-x="407" d="M91 177q-22 47 -22 90q0 48 25.5 83t56.5 62t56.5 49t25.5 44q0 45 -47.5 67t-140.5 30l24 111q55 -4 109 -15t97 -34t70 -60.5t27 -92.5q0 -31 -14 -57t-34.5 -48.5t-44.5 -41.5t-44.5 -36.5t-34.5 -34.5t-14 -34q0 -13 3 -29t11 -35zM85 124h137v-124h-137v124z" />
<glyph unicode="&#xbf;" horiz-adv-x="409" d="M342 -3q-55 4 -109 15t-97 34.5t-70 60.5t-27 94q0 31 14 56.5t34.5 47t44.5 40t44.5 36t34.5 34t14 34.5q0 11 -3.5 28.5t-10.5 34.5l109 19q11 -25 16.5 -47.5t5.5 -42.5q0 -48 -25.5 -83t-56.5 -61.5t-56.5 -48.5t-25.5 -44q0 -42 47.5 -65t140.5 -31zM190 707h137 v-124h-137v124z" />
<glyph unicode="!" horiz-adv-x="317" d="M92 375v332h133v-332l-7 -173h-118zM89 124h138v-124h-138v124z" />
<glyph unicode="&#xa1;" horiz-adv-x="311" d="M89 332l8 173h118l7 -173v-332h-133v332zM87 707h139v-124h-139v124z" />
<glyph unicode="-" horiz-adv-x="449" d="M75 407h298v-108h-298v108z" />
<glyph unicode="&#xad;" horiz-adv-x="449" d="M75 407h298v-108h-298v108z" />
<glyph unicode="&#x2013;" horiz-adv-x="623" d="M75 400h472v-94h-472v94z" />
<glyph unicode="&#x2014;" horiz-adv-x="941" d="M75 400h791v-94h-791v94z" />
<glyph unicode="_" horiz-adv-x="596" d="M43 -77h511v-109h-511v109z" />
<glyph unicode="@" horiz-adv-x="808" d="M382 -73q-76 0 -138 19.5t-106.5 61t-68.5 106t-24 153.5q0 117 35 202t95 140t139.5 81.5t168.5 26.5q65 0 118 -17.5t90.5 -53.5t57.5 -91.5t20 -132.5q0 -69 -19 -122t-52 -89t-76.5 -55t-92.5 -19q-44 0 -67.5 19.5t-25.5 44.5q-8 -11 -19.5 -20.5t-24.5 -17.5 t-26.5 -12.5t-24.5 -4.5q-25 0 -46 6t-36 21.5t-23 42t-8 66.5q0 45 14.5 84.5t41 68t64.5 45t85 16.5q29 0 60 -4.5t71 -20.5l-24 -201q-2 -14 1 -27t19 -13q14 0 32.5 11.5t35 35t28 60t11.5 86.5q0 54 -14 93t-39 64t-60 37t-77 12q-67 0 -126.5 -20t-104.5 -63 t-71 -110.5t-26 -162.5q0 -67 18 -114.5t50 -78t76.5 -45t97.5 -14.5q37 0 82 5t83 13l13 -85q-28 -9 -51 -14t-44 -8t-43 -4t-49 -1zM371 242q24 0 37.5 9t23.5 17l19 146q-3 0 -7.5 0.5t-8.5 0.5q-43 0 -67.5 -33.5t-24.5 -88.5q0 -22 5.5 -36.5t22.5 -14.5z" />
<glyph unicode="&#x26;" horiz-adv-x="706" d="M248 -11q-41 0 -79 9.5t-67.5 31t-47 56t-17.5 84.5q0 33 11 62t30.5 54t45 46t54.5 39q-23 42 -35.5 80.5t-12.5 80.5q0 29 11.5 61t36 59t62.5 44.5t90 17.5q48 0 81.5 -13.5t55 -36t31 -51t9.5 -58.5q0 -37 -15 -66.5t-41.5 -54.5t-61.5 -45.5t-75 -39.5 q30 -51 73.5 -93t94.5 -74.5t107.5 -53.5t113.5 -29l-15 -105q-65 4 -129 23t-119 49q-37 -33 -82 -55t-110 -22zM260 89q31 0 55.5 9t45.5 25q-45 34 -79.5 74.5t-59.5 84.5q-27 -20 -43.5 -46.5t-16.5 -58.5q0 -45 29 -66.5t69 -21.5zM273 425q22 11 43.5 24.5t38.5 29 t27.5 32.5t10.5 34q0 32 -19.5 51.5t-51.5 19.5t-54.5 -20t-22.5 -58q0 -55 28 -113z" />
<glyph unicode="/" horiz-adv-x="444" d="M279 768h118l-232 -830h-119z" />
<glyph unicode="\" horiz-adv-x="444" d="M46 768h119l233 -830h-119z" />
<glyph unicode="|" horiz-adv-x="266" d="M73 754h120v-974h-120v974z" />
<glyph unicode="(" horiz-adv-x="359" d="M276 -151q-50 37 -93.5 87t-75.5 112t-50.5 136.5t-18.5 161.5q0 83 18 156t50 134.5t75.5 109.5t93.5 82l68 -67q-41 -35 -74.5 -78t-57.5 -94.5t-37.5 -111.5t-13.5 -130q0 -128 47.5 -238.5t132.5 -189.5z" />
<glyph unicode=")" horiz-adv-x="350" d="M11 -81q85 79 132.5 189.5t47.5 238.5q0 70 -13.5 130t-37.5 111.5t-58 94.5t-74 78l68 67q50 -34 93.5 -82t75.5 -109.5t50 -134.5t18 -156q0 -87 -18.5 -161.5t-50.5 -136.5t-75.5 -112t-93.5 -87z" />
<glyph unicode="[" horiz-adv-x="336" d="M73 842h234v-104h-107v-766h107v-104h-234v974z" />
<glyph unicode="]" horiz-adv-x="336" d="M29 -28h107v766h-107v104h234v-974h-234v104z" />
<glyph unicode="{" horiz-adv-x="367" d="M293 -142q-46 0 -83.5 7t-64.5 24.5t-42 47t-15 74.5q0 7 0.5 14t1.5 15l21 192q1 10 -2.5 22t-13 22.5t-25.5 17t-38 6.5v106q22 0 38 6.5t25.5 16.5t13 21.5t2.5 22.5l-21 196q-1 8 -1.5 16t-0.5 15q1 42 16 71t41.5 46.5t64 25t83.5 7.5h44v-112h-40q-45 0 -64 -22.5 t-15 -57.5l21 -176q7 -54 -13 -83.5t-55 -43.5v-2q35 -16 55 -45t13 -83l-21 -176q-4 -34 14.5 -56.5t64.5 -22.5h40v-112h-44v0z" />
<glyph unicode="}" horiz-adv-x="367" d="M27 -140v112h41q46 0 64.5 22.5t14.5 56.5l-21 176q-7 54 13 83t55 45v2q-35 14 -55 43.5t-13 83.5l21 176q4 35 -15 57.5t-64 22.5h-41v112h45q46 0 83 -7.5t64 -25t42 -46.5t16 -71q0 -7 -0.5 -15t-1.5 -16l-21 -196q-1 -11 2.5 -22.5t13 -21.5t25 -16.5t38.5 -6.5 v-106q-23 0 -38.5 -6.5t-25 -17t-13 -22.5t-2.5 -22l21 -192q1 -8 1.5 -15t0.5 -14q0 -45 -15 -74.5t-42 -47t-64.5 -24.5t-83.5 -7h-45z" />
<glyph unicode="&#xa7;" horiz-adv-x="585" d="M138 -219q-33 0 -66 10.5t-56 29.5l36 98q14 -10 28 -17q12 -7 27 -12t29 -5q13 0 21 8.5t12.5 20.5t6 25t1.5 23q0 28 -4.5 56.5t-9.5 56.5l-67 316q-5 24 -7.5 48.5t-2.5 49.5q0 62 25.5 112.5t69 86t101 54.5t121.5 19q38 0 82.5 -12t79.5 -43q-14 -22 -25 -40 q-10 -16 -19 -29.5t-12 -16.5q-17 14 -45.5 26.5t-58.5 12.5q-27 0 -36.5 -18t-9.5 -40q0 -20 3 -41t6 -38l69 -306q9 -47 14.5 -91.5t5.5 -76.5q0 -58 -25.5 -107t-69 -84.5t-101.5 -55.5t-123 -20zM274 -105q11 10 23.5 24t22.5 31.5t16.5 39.5t6.5 48q0 25 -3 49.5 t-8 49.5l-72 340q-4 20 -6 42.5t-2 45.5q0 18 2 38t7 40q-18 -13 -29 -30.5t-18 -36t-9.5 -37.5t-2.5 -35q-1 -23 2 -47.5t6 -41.5l72 -342q3 -17 6 -40t3 -44q0 -26 -4.5 -45.5t-12.5 -48.5z" />
<glyph unicode="&#x2022;" horiz-adv-x="372" d="M186 208q-30 0 -56.5 11t-46 30.5t-31 46t-11.5 56.5q0 31 11.5 57.5t31 46t46 30.5t56.5 11t56.5 -11t46 -30.5t31 -46t11.5 -57.5q0 -30 -11.5 -56.5t-31 -46t-46 -30.5t-56.5 -11z" />
<glyph unicode="#" horiz-adv-x="692" d="M526 149l-9 -149h-127l9 149h-130l-9 -149h-127l9 149h-86v108h93l11 181h-104v108h113l9 161h128l-10 -161h129l10 161h127l-10 -161h84v-108h-91l-13 -181h104v-108h-110zM288 438l-12 -181h130l11 181h-129z" />
<glyph unicode="%" horiz-adv-x="837" d="M211 365q-35 0 -66 9t-55 29.5t-38 52.5t-14 78q0 43 14.5 76.5t38.5 56.5t56 35t67 12t67 -8.5t56.5 -29t39 -53.5t14.5 -81q0 -43 -14.5 -76t-39 -55.5t-57.5 -34t-69 -11.5zM211 458q29 0 48.5 20.5t19.5 63.5q0 80 -65 80q-24 0 -43.5 -19t-19.5 -69q0 -42 15.5 -59 t44.5 -17zM617 -10q-35 0 -66 9t-55 29t-38 52t-14 78q0 43 14.5 76.5t38.5 56.5t56 35t67 12t67 -8.5t56.5 -29t39 -53.5t14.5 -81q0 -43 -14.5 -75.5t-39 -55t-57.5 -34t-69 -11.5zM617 83q29 0 48.5 20t19.5 63q0 80 -65 80q-24 0 -44 -19t-20 -69q0 -42 15.5 -58.5 t45.5 -16.5zM94 118l564 532l70 -73l-564 -532z" />
<glyph unicode="&#x2030;" horiz-adv-x="1228" d="M211 365q-35 0 -66 9t-55 29.5t-38 52.5t-14 78q0 43 14.5 76.5t38.5 56.5t56 35t67 12t67 -8.5t56.5 -29t39 -53.5t14.5 -81q0 -43 -14.5 -76t-39 -55.5t-57.5 -34t-69 -11.5zM211 458q29 0 48.5 20.5t19.5 63.5q0 80 -65 80q-24 0 -43.5 -19t-19.5 -69q0 -42 15.5 -59 t44.5 -17zM617 -10q-35 0 -66 9t-55 29t-38 52t-14 78q0 43 14.5 76.5t38.5 56.5t56 35t67 12t67 -8.5t56.5 -29t39 -53.5t14.5 -81q0 -43 -14.5 -75.5t-39 -55t-57.5 -34t-69 -11.5zM617 83q29 0 48.5 20t19.5 63q0 80 -65 80q-24 0 -44 -19t-20 -69q0 -42 15.5 -58.5 t45.5 -16.5zM1009 -10q-35 0 -66.5 9t-55.5 29t-38 52t-14 78q0 43 14.5 76.5t39 56.5t56.5 35t67 12q34 0 66 -8.5t57 -29t39.5 -53.5t14.5 -81q0 -43 -14.5 -75.5t-39.5 -55t-57.5 -34t-68.5 -11.5zM1009 83q29 0 48.5 20t19.5 63q0 80 -65 80q-24 0 -44 -19t-20 -69 q0 -42 15.5 -58.5t45.5 -16.5zM94 118l564 532l70 -73l-564 -532z" />
<glyph unicode="&#x2020;" horiz-adv-x="527" d="M203 482l-169 -8v121l168 -8l-9 167h141l-9 -167l168 8v-121l-169 8l8 -482h-138z" />
<glyph unicode="'" horiz-adv-x="215" d="M48 754h120l-9 -239h-103z" />
<glyph unicode="&#x22;" horiz-adv-x="396" d="M48 754h113l-9 -239h-96zM236 754h113l-9 -239h-96z" />
<glyph unicode="&#x201c;" horiz-adv-x="393" d="M49 587q0 52 15 94t40 74h85q-9 -18 -15 -36.5t-9.5 -36t-5 -32t-1.5 -24.5v-115h-109v76zM229 587q0 52 15 94t39 74h85q-9 -18 -15 -36.5t-9 -36t-4.5 -32t-1.5 -24.5v-115h-109v76z" />
<glyph unicode="&#x201d;" horiz-adv-x="395" d="M38 511q18 35 24 72.5t6 57.5v114h109v-76q0 -51 -15 -93.5t-39 -74.5h-85zM218 511q18 35 24 72.5t6 57.5v114h109v-76q0 -51 -15 -93.5t-40 -74.5h-84z" />
<glyph unicode="&#x2018;" horiz-adv-x="213" d="M49 587q0 52 15 94t39 74h85q-9 -18 -15 -36.5t-9.5 -36t-4.5 -32t-1 -24.5v-115h-109v76z" />
<glyph unicode="&#x2019;" horiz-adv-x="214" d="M38 511q18 35 24 72.5t6 57.5v114h109v-76q0 -51 -15.5 -93.5t-39.5 -74.5h-84v0z" />
<glyph unicode="&#x201a;" horiz-adv-x="229" d="M30 -122q9 18 14.5 36.5t9 36t4.5 32.5t1 25v114h111v-76q0 -52 -15.5 -94t-39.5 -74h-85v0z" />
<glyph unicode="&#x201e;" horiz-adv-x="397" d="M30 -122q9 18 14.5 36.5t9 36t4.5 32.5t1 25v114h106v-76q0 -52 -15 -94t-39 -74h-81zM201 -122q9 18 15 36.5t9.5 36t5 32.5t1.5 25v114h105v-76q0 -52 -15 -94t-39 -74h-82z" />
<glyph unicode="&#x203a;" horiz-adv-x="285" d="M45 169l88 184l-90 190l86 34l120 -224l-120 -226z" />
<glyph unicode="&#x2039;" horiz-adv-x="285" d="M35 350l119 224l86 -34l-89 -190l88 -185l-84 -41z" />
<glyph unicode="&#xab;" horiz-adv-x="489" d="M35 352l119 224l86 -34l-89 -190l88 -185l-84 -41zM239 352l119 224l86 -34l-89 -190l88 -185l-84 -41z" />
<glyph unicode="&#xbb;" horiz-adv-x="488" d="M45 168l88 185l-90 190l86 34l120 -224l-120 -226zM249 168l88 185l-90 190l86 34l119 -224l-119 -226z" />
<glyph unicode="*" horiz-adv-x="428" d="M34 537l122 37l20 -36l-95 -85zM34 632l48 84l95 -88l-20 -37zM194 528h40l27 -123h-97zM167 761h96l-27 -123h-43zM252 537l21 37l122 -40l-47 -84zM252 628l95 86l47 -84l-122 -38z" />
<glyph unicode="&#xb7;" horiz-adv-x="251" d="M37 377l89 88l88 -88l-88 -90z" />
<glyph unicode="+" horiz-adv-x="576" d="M234 254l-205 -1v103l205 -3l-1 209h104l-4 -211l214 5v-103l-212 1l2 -206h-104z" />
<glyph unicode="&#x3c;" horiz-adv-x="500" d="M32 244v119l416 197v-114l-310 -143l310 -135v-114z" />
<glyph unicode="=" horiz-adv-x="636" d="M83 236h469l1 -103h-469zM83 472h469l1 -103h-469z" />
<glyph unicode="&#x3e;" horiz-adv-x="500" d="M52 168l310 135l-310 143v114l416 -197v-119l-416 -190v114z" />
<glyph unicode="&#x401;" horiz-adv-x="600" d="M115 825l83 84l84 -84l-84 -84zM340 825l84 84l83 -84l-83 -84zM92 707h438v-108h-302v-193h280v-102h-280v-196h325v-108h-461v707z" />
<glyph unicode="&#x402;" horiz-adv-x="789" d="M440 -130q9 7 37.5 32t60 67t56 101.5t24.5 135.5q0 65 -32.5 100.5t-92.5 35.5q-35 0 -73.5 -9.5t-72.5 -26.5v-306h-137v598h-199v109h590v-109h-254v-186q42 16 85.5 26t90.5 10q61 0 105.5 -17t73 -48t42 -74t13.5 -95q0 -67 -17.5 -127t-49.5 -114t-78 -102 t-103 -91z" />
<glyph unicode="&#x406;" horiz-adv-x="320" d="M92 707h136v-707h-136v707z" />
<glyph unicode="&#x408;" horiz-adv-x="322" d="M-51 -95q45 25 73.5 49t44 52.5t21.5 63.5t6 81v556h138v-554q0 -55 -7 -105.5t-30.5 -94.5t-69.5 -81.5t-124 -65.5z" />
<glyph unicode="&#x409;" horiz-adv-x="1032" d="M-1 97q19 8 40 18.5t40 23.5t34.5 29t24.5 34q24 48 39 177.5t23 327.5h430v-599h84q80 0 115.5 34.5t35.5 90.5q0 62 -40 94t-121 32h-56v107h52q150 0 228 -61t78 -173q0 -106 -74 -169t-216 -63h-224v606h-177q-6 -99 -12.5 -175.5t-15.5 -135t-21 -101t-29 -74.5 q-29 -53 -77.5 -86t-103.5 -56z" />
<glyph unicode="&#x40a;" horiz-adv-x="1065" d="M92 707h136v-279h304v279h137v-599h80q79 0 115.5 29t36.5 78q0 107 -158 107h-55v106h51q149 0 226.5 -55.5t77.5 -159.5q0 -98 -77.5 -155.5t-217.5 -57.5h-216v322h-304v-322h-136v707z" />
<glyph unicode="&#x40b;" horiz-adv-x="799" d="M210 598h-199v109h590v-109h-254v-186q42 17 85.5 27t88.5 10q124 0 180 -51t56 -146v-252h-137v230q0 36 -11 58t-29.5 34t-42.5 16t-49 4q-66 0 -141 -40v-302h-137v598z" />
<glyph unicode="&#x40e;" horiz-adv-x="621" d="M140 101q27 9 47.5 17t36.5 18.5t28.5 25t23.5 37.5l13 26h-44l-250 482h153l186 -381l141 381h153l-225 -504q-29 -63 -54 -100t-51 -58t-54.5 -32t-64.5 -22zM319 753q-58 0 -108.5 26t-81.5 74l60 63q31 -34 64.5 -47.5t65.5 -13.5t65.5 13.5t64.5 47.5l60 -63 q-31 -48 -81.5 -74t-108.5 -26z" />
<glyph unicode="&#x40f;" horiz-adv-x="777" d="M322 0h-230v707h136v-601h320v601h137v-707h-227v-153h-136v153z" />
<glyph unicode="&#x410;" horiz-adv-x="700" d="M270 707h177l245 -707h-143l-77 229h-255l-87 -229h-139zM438 330l-85 290l-98 -290h183z" />
<glyph unicode="&#x411;" horiz-adv-x="653" d="M92 707h467v-108h-330v-491h89q83 0 119.5 31.5t36.5 83.5q0 57 -40 86t-125 29h-70v107h67q152 0 231 -55.5t79 -168.5q0 -106 -75.5 -163.5t-219.5 -57.5h-229v707z" />
<glyph unicode="&#x412;" horiz-adv-x="664" d="M92 707h227q127 0 188.5 -48.5t61.5 -139.5q0 -50 -25 -86t-59 -51v-2q21 -5 45 -18t44 -34t33 -50t13 -66q0 -47 -14.5 -86t-47 -67t-84 -43.5t-125.5 -15.5h-257v707zM336 108q71 0 109 21.5t38 78.5t-40 80.5t-120 23.5h-94v-204h107zM313 409q60 0 90 22.5t30 73.5 q0 55 -35 76t-103 21h-66v-193h84z" />
<glyph unicode="&#x413;" horiz-adv-x="564" d="M92 707h464v-108h-328v-599h-136v707z" />
<glyph unicode="&#x414;" horiz-adv-x="770" d="M11 107h67q24 42 43.5 86t31.5 84q38 127 55 430h430v-600h99v-260h-129v153h-467v-153h-130v260zM502 106v500h-174q-11 -137 -23.5 -220t-22.5 -127q-11 -38 -23 -73t-32 -80h275z" />
<glyph unicode="&#x415;" horiz-adv-x="600" d="M92 707h438v-108h-302v-193h280v-102h-280v-196h325v-108h-461v707z" />
<glyph unicode="&#x416;" horiz-adv-x="987" d="M425 361l-248 -361h-172l271 373l-249 334h167l231 -330v330h137v-331l231 331h167l-248 -334l270 -373h-172l-248 358v-358h-137v361z" />
<glyph unicode="&#x417;" d="M262 -8q-78 0 -137 16t-100 39l45 103q31 -15 79.5 -31t101.5 -16q30 0 55.5 5.5t44 18t29.5 32.5t11 48t-11.5 47t-31.5 31t-47 17t-59 5h-88v101h88q57 0 89.5 26.5t32.5 72.5q0 94 -115 94q-44 0 -81 -11t-69 -23l-44 93q35 18 87 34.5t120 16.5q60 0 105 -14t75 -38 t45 -56t15 -69t-10 -65t-25.5 -48.5t-33 -34t-32.5 -21.5v-2q16 -5 38.5 -15.5t42.5 -30t34.5 -49t14.5 -71.5q0 -36 -13 -72.5t-44 -66t-83 -48t-129 -18.5z" />
<glyph unicode="&#x418;" horiz-adv-x="796" d="M92 707h136v-420l-3 -99l64 103l279 416h136v-707h-136v420l3 99l-56 -89l-287 -430h-136v707z" />
<glyph unicode="&#x419;" horiz-adv-x="796" d="M401 753q-58 0 -108.5 26t-81.5 74l60 63q31 -34 64.5 -47.5t65.5 -13.5t65.5 13.5t64.5 47.5l60 -63q-31 -48 -81.5 -74t-108.5 -26zM92 707h136v-420l-3 -99l64 103l279 416h136v-707h-136v420l3 99l-56 -89l-287 -430h-136v707z" />
<glyph unicode="&#x41a;" horiz-adv-x="687" d="M92 707h136v-323l267 323h174l-289 -329l306 -378h-175l-283 374v-374h-136v707z" />
<glyph unicode="&#x41b;" horiz-adv-x="721" d="M-1 97q19 8 40 18.5t40 23.5t34.5 29t24.5 34q24 48 39 177.5t23 327.5h429v-707h-137v606h-177q-9 -99 -15.5 -175.5t-15 -135t-19.5 -101t-28 -74.5q-29 -53 -77.5 -86t-103.5 -56z" />
<glyph unicode="&#x41c;" horiz-adv-x="974" d="M92 707h170l215 -594l243 594h162v-707h-137v343l6 145h-4l-193 -488h-163l-167 489h-4l8 -140v-349h-136v707z" />
<glyph unicode="&#x41d;" horiz-adv-x="790" d="M92 707h136v-299h334v299h136v-707h-136v302h-334v-302h-136v707z" />
<glyph unicode="&#x41e;" horiz-adv-x="831" d="M407 -12q-89 0 -156.5 26t-113 74t-68.5 115.5t-23 151.5q0 83 26.5 150t75.5 114.5t119 73t157 25.5q92 0 160 -27.5t112.5 -76.5t66.5 -116t22 -145q0 -83 -25 -150.5t-73 -115t-118.5 -73.5t-161.5 -26zM410 97q63 0 107.5 20t73 54.5t42 81.5t13.5 101 q0 55 -14 101.5t-42.5 80.5t-71.5 53.5t-101 19.5q-61 0 -105 -19.5t-72.5 -53t-42 -80t-13.5 -100.5q0 -53 13 -100t41 -82.5t70.5 -56t101.5 -20.5z" />
<glyph unicode="&#x41f;" horiz-adv-x="780" d="M92 707h596v-707h-136v601h-324v-601h-136v707z" />
<glyph unicode="&#x420;" horiz-adv-x="632" d="M92 707h258q57 0 104 -16t81 -46.5t52.5 -75.5t18.5 -102q0 -50 -19.5 -95t-58 -78.5t-96.5 -53t-134 -19.5h-58v107h64q81 0 120.5 36t39.5 99q0 64 -31 100t-105 36h-99v-599h-137v707z" />
<glyph unicode="&#x421;" horiz-adv-x="678" d="M430 -12q-94 0 -165.5 25t-120 71.5t-73 113.5t-24.5 151q0 85 26 153t74.5 116t119 74t159.5 26q78 0 128 -13t86 -30l-38 -101q-23 7 -42 12t-38.5 9t-41.5 6t-52 2q-51 0 -95 -14t-76.5 -44t-51 -76t-18.5 -110q0 -65 19.5 -112.5t54 -79t82 -47t104.5 -15.5 q51 0 89 6t76 17l30 -105q-45 -17 -93.5 -26t-118.5 -9z" />
<glyph unicode="&#x422;" horiz-adv-x="615" d="M239 598h-229v109h595v-109h-229v-598h-137v598z" />
<glyph unicode="&#x423;" horiz-adv-x="621" d="M140 101q27 9 47.5 17t36.5 18.5t28.5 25t23.5 37.5l13 26h-44l-250 482h153l186 -381l141 381h153l-225 -504q-29 -63 -54 -100t-51 -58t-54.5 -32t-64.5 -22z" />
<glyph unicode="&#x424;" horiz-adv-x="829" d="M347 85q-67 0 -125 17.5t-100.5 53.5t-66.5 90t-24 127t24 127t66.5 90t100.5 53.5t125 17.5v76h134v-76q67 0 125 -17.5t100.5 -53.5t66.5 -90t24 -127t-24 -127t-66.5 -90t-100.5 -53.5t-125 -17.5v-85h-134v85zM481 186q83 0 131.5 48t48.5 139q0 93 -48.5 140 t-131.5 47v-374zM347 560q-83 0 -131.5 -47t-48.5 -140q0 -91 48.5 -139t131.5 -48v374z" />
<glyph unicode="&#x425;" horiz-adv-x="656" d="M254 367l-218 340h156l141 -236l151 236h152l-231 -338l237 -369h-158l-159 265l-169 -265h-154z" />
<glyph unicode="&#x426;" horiz-adv-x="813" d="M651 0h-559v707h136v-601h317v601h137v-600h99v-260h-130v153z" />
<glyph unicode="&#x427;" horiz-adv-x="682" d="M453 298q-42 -17 -87.5 -26.5t-90.5 -9.5q-64 0 -108.5 13.5t-72.5 39t-41 62t-13 81.5v249h137v-227q0 -36 11 -58t30 -34t42.5 -16t49.5 -4q32 0 69 10.5t74 30.5v298h137v-707h-137v298z" />
<glyph unicode="&#x428;" horiz-adv-x="1035" d="M92 707h136v-601h221v601h137v-601h220v601h137v-707h-851v707z" />
<glyph unicode="&#x429;" horiz-adv-x="1074" d="M912 0h-820v707h136v-601h221v601h137v-601h220v601h137v-600h99v-260h-130v153z" />
<glyph unicode="&#x42a;" horiz-adv-x="751" d="M211 601h-200v106h338v-599h84q80 0 115.5 34.5t35.5 90.5q0 62 -39.5 94t-120.5 32h-70v107h66q149 0 227.5 -61t78.5 -173q0 -106 -74.5 -169t-216.5 -63h-224v601z" />
<glyph unicode="&#x42b;" horiz-adv-x="918" d="M689 707h136v-707h-136v707zM92 707h138v-599h84q80 0 115.5 36.5t35.5 92.5q0 122 -161 122h-56v107h52q150 0 228.5 -59t78.5 -172q0 -53 -19 -96.5t-56 -74t-91.5 -47.5t-124.5 -17h-224v707z" />
<glyph unicode="&#x42c;" horiz-adv-x="632" d="M92 707h138v-599h84q80 0 115.5 36.5t35.5 92.5q0 122 -161 122h-56v107h52q150 0 228.5 -59t78.5 -172q0 -53 -19 -96.5t-56 -74t-91.5 -47.5t-124.5 -17h-224v707z" />
<glyph unicode="&#x42d;" horiz-adv-x="678" d="M249 -10q-76 0 -124.5 9t-87.5 23l30 105q36 -11 74.5 -16.5t89.5 -5.5q50 0 93.5 12t77 37t55.5 62.5t29 88.5h-341v102h343q-7 51 -27.5 88t-52 60.5t-72 34.5t-85.5 11q-32 0 -56 -2t-44 -5.5t-38 -8t-37 -10.5l-37 102q29 13 79 25.5t135 12.5q187 0 282.5 -92 t95.5 -271q0 -84 -24.5 -151t-72.5 -114t-119.5 -72t-165.5 -25z" />
<glyph unicode="&#x42e;" horiz-adv-x="1126" d="M701 -12q-82 0 -145.5 22t-108.5 63t-71 99t-33 130h-115v-302h-136v707h136v-299h116q7 75 37 132.5t78.5 97t114.5 60t146 20.5q92 0 159.5 -26.5t112 -75t66 -115.5t21.5 -148q0 -86 -25 -153.5t-73 -114.5t-118.5 -72t-161.5 -25zM704 97q63 0 108 20t73.5 54.5 t41.5 81.5t13 101q0 55 -14 101.5t-42.5 80.5t-71.5 53.5t-101 19.5q-61 0 -105 -19.5t-72.5 -53t-42 -80t-13.5 -100.5q0 -53 13 -100t41 -82.5t70.5 -56t101.5 -20.5z" />
<glyph unicode="&#x42f;" horiz-adv-x="692" d="M24 94q24 7 43.5 15t36 21t32 33.5t32.5 51.5l42 77q-61 23 -92.5 71t-31.5 112q0 57 19 100t53.5 72.5t81 44.5t102.5 15h258v-707h-137v258h-69h-23.5t-22.5 2l-63 -115q-41 -75 -95 -113t-142 -44zM463 357v242h-92q-72 0 -108 -31t-36 -90q0 -62 41.5 -91.5 t119.5 -29.5h75z" />
<glyph unicode="&#x430;" d="M205 -9q-77 0 -124.5 40.5t-47.5 118.5q0 52 21 85t53.5 51t72.5 25t78 7l108 1v47q0 47 -27 63.5t-82 16.5q-43 0 -82 -7t-76 -18l-27 98q45 18 94 29t115 11q108 0 161.5 -38t53.5 -125v-265q0 -20 15.5 -26.5t37.5 -7.5l-5 -101q-8 -1 -15 -1h-11q-25 0 -48.5 3 t-42 10t-31.5 19t-18 30q-31 -24 -72 -45t-101 -21zM243 95q28 0 61.5 10.5t61.5 24.5v108l-101 -4q-47 -1 -74.5 -19.5t-27.5 -54.5q0 -34 23 -49.5t57 -15.5z" />
<glyph unicode="&#x431;" horiz-adv-x="627" d="M308 -10q-57 0 -103.5 18t-79.5 56t-51 96t-18 139q0 44 4.5 96.5t15 102t28.5 90.5t44 64q22 19 60.5 36t89 32t110 28t123.5 24l21 -119q-57 -9 -109 -17.5t-94 -17.5t-72 -18.5t-43 -20.5q-22 -18 -32.5 -53t-14.5 -70q35 19 79.5 32t103.5 13q101 0 158 -53.5 t57 -174.5q0 -74 -21 -127t-58 -88t-87.5 -51.5t-110.5 -16.5zM318 96q39 0 65 15t41 39.5t21.5 55t6.5 61.5q0 57 -28 94.5t-95 37.5q-40 0 -76.5 -11.5t-68.5 -27.5q-1 -12 -1 -30v-29q0 -106 34 -155.5t101 -49.5z" />
<glyph unicode="&#x432;" horiz-adv-x="571" d="M74 546h243q89 0 138 -37t49 -108q0 -44 -22 -72.5t-50 -39.5q16 -3 34 -12t32.5 -25t24 -38t9.5 -52q0 -38 -15 -68t-43 -51t-66.5 -32t-86.5 -11h-247v546zM292 95q44 0 73.5 15t29.5 55q0 41 -30.5 55.5t-82.5 15.5h-75v-141h85zM275 320q48 0 74.5 16t26.5 51 t-26.5 49.5t-71.5 14.5h-71v-131h68z" />
<glyph unicode="&#x433;" horiz-adv-x="468" d="M74 546h382v-102h-249v-444h-133v546z" />
<glyph unicode="&#x434;" horiz-adv-x="663" d="M16 101h60q13 22 23 41.5t18 39.5t14 41.5t11 47.5q8 38 15 109.5t12 165.5h381v-445h88v-248h-123v147h-376v-147h-123v248zM417 101v344h-134q-6 -74 -11.5 -125.5t-13.5 -86.5q-8 -41 -18.5 -70t-26.5 -62h204z" />
<glyph unicode="&#x435;" horiz-adv-x="571" d="M321 -12q-63 0 -114.5 13t-88 45t-56.5 85t-20 134q0 82 20 138t55 90.5t82 50t101 15.5q63 0 107 -18.5t72 -54t40.5 -86.5t12.5 -116v-48h-356q0 -44 13 -71t35.5 -42.5t52 -21t62.5 -5.5q38 0 75 6t82 17l21 -101q-42 -14 -92 -22t-104 -8zM395 325q1 63 -23.5 100.5 t-76.5 37.5q-48 0 -80 -35t-36 -103h216z" />
<glyph unicode="&#x436;" horiz-adv-x="813" d="M19 90q31 11 61 33t61 62l79 101l-191 260h146l165 -240v240h133v-238l165 238h146l-190 -260l79 -101q31 -40 60.5 -62t61.5 -33l-25 -101q-26 1 -48 5t-43.5 14.5t-43.5 30.5t-48 55l-114 153v-247h-133v245l-114 -151q-26 -34 -48 -54t-43.5 -31t-43.5 -15t-47 -5z " />
<glyph unicode="&#x437;" horiz-adv-x="484" d="M224 -10q-52 0 -105 12t-95 33l37 101q12 -6 29 -13.5t37.5 -13.5t42.5 -10t44 -4q36 0 62.5 17t26.5 52q0 37 -29 51t-68 14h-76v99h72q23 0 39.5 6t26.5 15.5t14.5 21t4.5 23.5q0 26 -20.5 42.5t-59.5 16.5q-40 0 -72 -9.5t-61 -20.5l-31 95q38 18 86 29.5t101 11.5 q48 0 84 -12t59.5 -32t35 -45.5t11.5 -52.5q0 -51 -23.5 -82t-57.5 -47q18 -5 36.5 -14.5t34 -26t25.5 -40t10 -55.5q0 -29 -12 -57.5t-38.5 -52t-68.5 -38t-102 -14.5z" />
<glyph unicode="&#x438;" horiz-adv-x="663" d="M74 546h133v-289l-3 -80l52 80l200 289h133v-546h-133v287l2 80l-51 -80l-200 -287h-133v546z" />
<glyph unicode="&#x439;" horiz-adv-x="663" d="M331 626q-51 0 -96.5 26t-71.5 72l52 61q28 -32 57 -45.5t59 -13.5q31 0 60 13.5t57 45.5l52 -61q-26 -46 -71.5 -72t-97.5 -26zM74 546h133v-289l-3 -80l52 80l200 289h133v-546h-133v287l2 80l-51 -80l-200 -287h-133v546z" />
<glyph unicode="&#x43a;" horiz-adv-x="575" d="M74 546h133v-247l186 247h149l-211 -256l92 -105q33 -37 64 -60.5t73 -34.5l-18 -101q-26 1 -51 5.5t-50.5 15.5t-51.5 31t-53 53l-129 161v-255h-133v546z" />
<glyph unicode="&#x43b;" horiz-adv-x="616" d="M6 92q28 10 59 28t48 49q10 17 18 51.5t15 83.5t11.5 110t6.5 132h379v-546h-134v445h-132q-11 -139 -28 -225t-43 -132q-49 -77 -164 -104z" />
<glyph unicode="&#x43c;" horiz-adv-x="781" d="M74 546h168l143 -435l159 435h163v-546h-125v240l4 127l-129 -367h-148l-117 369l7 -129v-240h-125v546z" />
<glyph unicode="&#x43d;" horiz-adv-x="643" d="M74 546h133v-221h229v221h133v-546h-133v223h-229v-223h-133v546z" />
<glyph unicode="&#x43e;" horiz-adv-x="619" d="M304 -12q-128 0 -196 74.5t-68 205.5q0 69 19.5 123t55.5 91.5t86.5 57.5t112.5 20q134 0 199.5 -76t65.5 -210q0 -71 -20.5 -124.5t-57.5 -89.5t-87 -54t-110 -18zM311 95q40 0 65.5 14t40.5 38t20.5 56t5.5 69q0 35 -5.5 68t-20.5 58.5t-41 40.5t-66 15t-66 -15 t-41.5 -40.5t-21.5 -58.5t-6 -68q0 -38 6.5 -70.5t22.5 -56t42 -37t65 -13.5z" />
<glyph unicode="&#x43f;" horiz-adv-x="633" d="M74 546h485v-546h-133v445h-219v-445h-133v546z" />
<glyph unicode="&#x440;" horiz-adv-x="621" d="M74 546h132v-41q34 24 69 39t85 15q47 0 87.5 -15.5t70 -48t46 -82.5t16.5 -120q0 -85 -24 -143t-64.5 -93.5t-92.5 -51t-109 -15.5q-26 0 -46.5 1.5t-37.5 3.5v-215h-132v766zM288 93q40 0 70 14.5t49 40.5t28.5 62t9.5 78q0 74 -30 116.5t-99 42.5q-36 0 -62.5 -10 t-47.5 -19v-317q4 0 13 -1.5t20.5 -3t24 -2.5t24.5 -1z" />
<glyph unicode="&#x441;" horiz-adv-x="518" d="M335 -12q-80 0 -135.5 17.5t-91 51.5t-51.5 85t-16 118q0 150 76 225t210 75q54 0 94 -11t66 -25l-35 -99q-23 9 -51.5 17t-66.5 8q-37 0 -66 -9.5t-49.5 -31.5t-31 -57.5t-10.5 -87.5q0 -40 8 -71t27.5 -52.5t53 -32.5t85.5 -11q31 0 54.5 4t58.5 11l19 -103 q-17 -4 -33 -8t-33.5 -7t-37 -4.5t-44.5 -1.5z" />
<glyph unicode="&#x442;" horiz-adv-x="513" d="M190 444h-176v102h486v-102h-177v-444h-133v444z" />
<glyph unicode="&#x443;" horiz-adv-x="564" d="M241 0h-52l-183 546h144l103 -349l26 -92l29 91l118 350h135l-267 -766h-128z" />
<glyph unicode="&#x444;" horiz-adv-x="785" d="M327 -11q-135 0 -211 71.5t-76 209.5q0 71 21 125t59 90t91 55t116 19v195h130v-195q139 0 213 -72t74 -213q0 -72 -22 -125t-60.5 -88t-91 -53t-113.5 -19v-209h-130v209zM457 96q82 0 116.5 48t34.5 130q0 39 -8 71.5t-26 56t-47 37t-70 14.5v-357zM327 453 q-42 0 -71 -13t-47 -37t-26 -57t-8 -73q0 -41 8.5 -74t26.5 -56.5t47 -36t70 -12.5v359z" />
<glyph unicode="&#x445;" horiz-adv-x="555" d="M202 279l-184 267h154l106 -183l107 183h151l-183 -266l199 -280h-160l-114 195l-116 -195h-157z" />
<glyph unicode="&#x446;" horiz-adv-x="666" d="M518 0h-444v546h133v-445h214v445h133v-445h87v-248h-123v147z" />
<glyph unicode="&#x447;" horiz-adv-x="579" d="M372 220q-30 -11 -68.5 -19.5t-81.5 -8.5q-52 0 -87.5 11t-57.5 34t-32 58.5t-10 83.5v167h132v-157q0 -51 20.5 -72t71.5 -21q34 0 62 7t51 17v226h133v-546h-133v220z" />
<glyph unicode="&#x448;" horiz-adv-x="877" d="M74 546h133v-445h165v445h133v-445h165v445h133v-546h-729v546z" />
<glyph unicode="&#x449;" horiz-adv-x="915" d="M767 0h-693v546h133v-445h165v445h133v-445h165v445h133v-445h87v-248h-123v147z" />
<glyph unicode="&#x44a;" horiz-adv-x="658" d="M180 445h-166v101h300v-444h84q47 0 73.5 21.5t26.5 63.5q0 48 -33.5 67.5t-84.5 19.5h-60v101h69q56 0 101 -12.5t77 -36.5t49.5 -59.5t17.5 -81.5q0 -39 -15 -73t-41 -58.5t-63 -39t-80 -14.5h-255v445z" />
<glyph unicode="&#x44b;" horiz-adv-x="791" d="M74 546h133v-171h75q112 0 175.5 -48t63.5 -142q0 -39 -13.5 -73t-39 -58.5t-61 -39t-79.5 -14.5h-254v546zM583 546h134v-546h-134v546zM207 274v-172h85q93 0 93 85q0 48 -30 67.5t-81 19.5h-67z" />
<glyph unicode="&#x44c;" horiz-adv-x="552" d="M74 546h133v-171h75q56 0 101.5 -12.5t77.5 -36.5t49.5 -59.5t17.5 -81.5q0 -39 -15 -73t-41.5 -58.5t-63 -39t-80.5 -14.5h-254v546zM207 274v-172h85q46 0 73 21.5t27 63.5q0 48 -33.5 67.5t-84.5 19.5h-67z" />
<glyph unicode="&#x44d;" horiz-adv-x="517" d="M204 -10q-55 0 -99 11.5t-77 27.5l36 100q23 -10 58.5 -21.5t80.5 -11.5q67 0 99.5 35.5t37.5 95.5h-207v101h206q-8 57 -41 91t-92 34q-42 0 -72.5 -8.5t-58.5 -19.5l-39 96q30 16 71.5 27.5t98.5 11.5q133 0 201 -70t68 -212q0 -69 -19 -122.5t-54 -90.5t-85 -56 t-113 -19z" />
<glyph unicode="&#x44e;" horiz-adv-x="888" d="M574 -11q-116 0 -183.5 61t-78.5 173h-105v-223h-133v546h133v-221h106q16 112 88 173t181 61q136 0 201 -75.5t65 -210.5q0 -71 -20.5 -124t-57 -88.5t-87 -53.5t-109.5 -18zM581 96q39 0 64.5 13.5t40.5 37.5t20.5 56.5t5.5 69.5q0 35 -5.5 67.5t-20.5 57.5t-41 40 t-66 15t-66 -15t-41.5 -40t-21.5 -58t-6 -68q0 -38 6.5 -70t22.5 -55.5t42.5 -37t65.5 -13.5z" />
<glyph unicode="&#x44f;" horiz-adv-x="581" d="M26 93q19 4 34 8.5t28 11t25 17.5t25 29q1 2 5 8t8.5 13t8.5 13.5t6 9.5q-42 18 -69 57.5t-27 95.5q0 46 17 81.5t46.5 59.5t69 36.5t85.5 12.5h219v-546h-133v172h-50h-14t-14 1l-56 -80q-24 -33 -47.5 -53t-48.5 -31t-50.5 -14.5t-52.5 -4.5zM374 271v174h-73 q-44 0 -69.5 -23.5t-25.5 -65.5q0 -21 9 -37t23.5 -26.5t34 -16t40.5 -5.5h61z" />
<glyph unicode="&#x451;" horiz-adv-x="571" d="M97 716l79 80l79 -80l-79 -80zM322 716l80 80l79 -80l-79 -80zM321 -12q-63 0 -114.5 13t-88 45t-56.5 85t-20 134q0 82 20 138t55 90.5t82 50t101 15.5q63 0 107 -18.5t72 -54t40.5 -86.5t12.5 -116v-48h-356q0 -44 13 -71t35.5 -42.5t52 -21t62.5 -5.5q38 0 75 6t82 17 l21 -101q-42 -14 -92 -22t-104 -8zM395 325q1 63 -23.5 100.5t-76.5 37.5q-48 0 -80 -35t-36 -103h216z" />
<glyph unicode="&#x452;" horiz-adv-x="640" d="M297 -138q29 30 56.5 67.5t49 83t34.5 99.5t13 116q0 70 -27.5 108t-84.5 38q-22 0 -41.5 -4.5t-36 -11.5t-30 -14t-23.5 -12v-332h-133v560h-102v96h102v98h133v-98h183v-96h-183v-141q13 10 32.5 22.5t43.5 23.5t51 19t56 8q55 0 93 -22t60.5 -57.5t32.5 -80.5t10 -92 q0 -73 -15 -139t-42 -124t-63.5 -107.5t-79.5 -89.5z" />
<glyph unicode="&#x456;" horiz-adv-x="281" d="M74 546h134v-546h-134v546zM46 716l94 94l95 -94l-95 -95z" />
<glyph unicode="&#x458;" horiz-adv-x="281" d="M0 -225q-26 0 -56 6.5t-50 15.5l24 105q17 -6 38 -9.5t40 -3.5q44 0 61 25t17 81v551h133v-552q0 -67 -16.5 -109.5t-45 -67t-66 -33.5t-79.5 -9zM45 716l94 94l95 -94l-95 -95z" />
<glyph unicode="&#x459;" horiz-adv-x="887" d="M4 91q14 5 29.5 12t30.5 16.5t27.5 22t21.5 27.5q10 17 18 51.5t15 83.5t11.5 110t6.5 132h378v-444h85q46 0 73 21.5t27 63.5q0 48 -33.5 67.5t-84.5 19.5h-61v101h69q56 0 101.5 -12.5t77.5 -36.5t49.5 -59.5t17.5 -81.5q0 -39 -15 -73t-41.5 -58.5t-63 -39 t-80.5 -14.5h-255v445h-132q-13 -137 -29 -223t-42 -132q-24 -41 -65.5 -67t-99.5 -40z" />
<glyph unicode="&#x45a;" horiz-adv-x="891" d="M74 546h134v-203h218v203h134v-444h77q42 0 66.5 17.5t24.5 51.5q0 40 -30 55.5t-77 15.5h-55v101h67q108 0 172.5 -44t64.5 -129q0 -36 -14.5 -67.5t-40 -54t-61 -35.5t-77.5 -13h-251v242h-218v-242h-134v546z" />
<glyph unicode="&#x45b;" horiz-adv-x="632" d="M74 560h-102v96h102v98h133v-98h183v-96h-183v-141q13 10 32 22.5t42.5 23.5t51 19t57.5 8q63 0 98.5 -17.5t53 -47.5t21.5 -68.5t4 -80.5v-278h-131v267q0 31 -3.5 52t-13.5 33.5t-27.5 17.5t-44.5 5q-21 0 -41.5 -5t-39.5 -11.5t-34 -14l-25 -12.5v-332h-133v560z" />
<glyph unicode="&#x45e;" horiz-adv-x="564" d="M241 0h-52l-183 546h144l103 -349l26 -92l29 91l118 350h135l-267 -766h-128zM281 629q-51 0 -96.5 26t-71.5 72l52 61q28 -32 57 -45.5t59 -13.5q31 0 60 13.5t57 45.5l52 -61q-26 -46 -71.5 -72t-97.5 -26z" />
<glyph unicode="&#x45f;" horiz-adv-x="634" d="M255 0h-181v546h133v-445h220v445h133v-546h-181v-147h-124v147z" />
<glyph horiz-adv-x="627" d="M320 -12q-57 0 -105.5 15.5t-84 53.5t-55 103t-19.5 163v105q0 72 19.5 134.5t55.5 108t87 71.5t113 26q56 0 96 -13.5t66 -36.5t38 -52.5t12 -61.5q0 -30 -7 -53t-20.5 -42t-33 -35.5t-44.5 -31.5q72 -16 111 -71t39 -143q0 -54 -21 -98.5t-57 -76t-85 -48.5t-105 -17z M320 96q57 0 94 33t37 105q0 69 -32.5 106.5t-92.5 37.5q-34 0 -68 -10t-68 -26v-24q0 -61 8 -103.5t24.5 -68.5t40.5 -38t57 -12zM190 423q29 12 53.5 21t46.5 19q58 26 88.5 53t30.5 57q0 40 -25.5 64t-67.5 24q-57 0 -91.5 -50t-34.5 -155v-33z" />
<glyph horiz-adv-x="469" d="M240 -13q-91 0 -146 36t-55 112q0 40 18 70t45 53t59 40.5t59 33.5t45 31.5t18 34.5q0 23 -20 38t-53 15q-35 0 -69 -10t-65 -26l-36 95q30 21 82 35.5t113 14.5q37 0 71 -10t59.5 -29t40.5 -46.5t15 -63.5q0 -37 -18.5 -65t-46 -50.5t-60 -40t-60 -34.5t-46 -34 t-18.5 -37q0 -26 20.5 -41.5t57.5 -15.5q40 0 82.5 9.5t75.5 26.5l30 -92q-40 -23 -89 -36.5t-109 -13.5z" />
<glyph horiz-adv-x="613" d="M274 -230q-21 0 -46.5 2t-51.5 6t-51.5 10t-44.5 14l22 113q46 -14 91.5 -21t83.5 -7q28 0 52.5 4.5t42 17.5t27.5 35t10 57v25q-13 -8 -24.5 -14t-24.5 -10t-28.5 -6t-36.5 -2q-45 0 -90.5 10t-81.5 39t-59 80t-23 134q0 81 23 138.5t63 94t95 53.5t119 17 q40 0 93.5 -6.5t107.5 -19.5v-550q0 -56 -21.5 -96.5t-58.5 -66.5t-85.5 -38.5t-102.5 -12.5zM318 95q25 0 47.5 6.5t42.5 17.5v318q-12 3 -32 7.5t-47 4.5q-42 0 -71.5 -13t-48 -37t-27 -58t-8.5 -76q0 -95 38 -132.5t106 -37.5z" />
<glyph horiz-adv-x="813" d="M19 90q31 11 61 33t61 62l79 101l-191 260h146l165 -240v448h133v-446l165 238h146l-190 -260l79 -101q31 -40 60.5 -62t61.5 -33l-25 -101q-26 1 -48 5t-43.5 14.5t-43.5 30.5t-48 55l-114 153v-247h-133v245l-114 -151q-26 -34 -48 -54t-43.5 -31t-43.5 -15t-47 -5z " />
<glyph horiz-adv-x="490" d="M198 -226q-35 0 -63.5 3t-53.5 9t-47 15t-44 21l44 102q30 -14 68 -27.5t83 -13.5q28 0 52.5 8t42.5 23.5t28.5 38t10.5 51.5q0 27 -11 49t-30 37t-45 23.5t-57 8.5h-70v99h67q26 0 48 11t37.5 28t24.5 39t9 44q0 23 -8.5 42.5t-23 34t-34 22.5t-41.5 8q-39 0 -71.5 -8.5 t-65.5 -22.5l-40 95q35 18 84.5 32t110.5 14q57 0 99.5 -16t70.5 -43t41.5 -62t13.5 -72q0 -34 -10.5 -64.5t-27 -54.5t-37 -41.5t-39.5 -26.5v-2q22 -5 47.5 -19t46.5 -37t35 -55t14 -73t-14 -80t-44.5 -70.5t-80 -50.5t-120.5 -19z" />
<glyph horiz-adv-x="635" d="M235 -12q-57 0 -90 18.5t-50 48.5t-21.5 68.5t-4.5 79.5v343h133v-328q0 -30 3 -51t12 -35t25.5 -20.5t43.5 -6.5q45 0 81.5 14t61.5 29v398h133v-546h-133v59q-17 -12 -36.5 -25t-43 -23t-51.5 -16.5t-63 -6.5z" />
<glyph horiz-adv-x="635" d="M318 629q-51 0 -96.5 26t-71.5 72l52 61q28 -32 57 -45.5t59 -13.5q31 0 60 13.5t57 45.5l52 -61q-26 -46 -71.5 -72t-97.5 -26zM235 -12q-57 0 -90 18.5t-50 48.5t-21.5 68.5t-4.5 79.5v343h133v-328q0 -30 3 -51t12 -35t25.5 -20.5t43.5 -6.5q45 0 81.5 14t61.5 29v398 h133v-546h-133v59q-17 -12 -36.5 -25t-43 -23t-51.5 -16.5t-63 -6.5z" />
<glyph horiz-adv-x="575" d="M74 754h133v-446l189 238h146l-211 -253l90 -108q32 -38 63.5 -61t73.5 -34l-18 -101q-26 1 -51 5t-50.5 15t-51.5 31t-53 54l-127 165v-259h-133v754z" />
<glyph d="M213 546h170l189 -546h-143l-134 435l-151 -435h-141z" />
<glyph horiz-adv-x="636" d="M74 546h133v-58q21 15 41.5 28t43.5 22.5t49.5 15.5t58.5 6q58 0 91.5 -18.5t50.5 -48.5t21.5 -68.5t4.5 -78.5v-346h-132v331q0 62 -17 87.5t-68 25.5q-45 0 -80.5 -13.5t-63.5 -29.5v-401h-133v546z" />
<glyph horiz-adv-x="969" d="M74 546h133v-59q37 29 82.5 51t96.5 22q58 0 96 -22.5t54 -59.5q16 14 37.5 28.5t46 26.5t52 19.5t56.5 7.5q64 0 98.5 -20.5t51 -52t19.5 -69.5t3 -72v-346h-133v331q0 56 -16.5 84.5t-68.5 28.5q-35 0 -69.5 -13.5t-62.5 -31.5q3 -26 3 -52v-347h-132v331 q0 60 -16.5 86t-65.5 26q-35 0 -69.5 -12.5t-62.5 -31.5v-399h-133v546z" />
<glyph horiz-adv-x="674" d="M526 0h-97v59q-14 -10 -33.5 -22t-43 -23t-51 -18.5t-56.5 -7.5q-62 0 -97 18t-52.5 47.5t-22 68.5t-4.5 81v343h133v-328q0 -30 3 -51t12 -34.5t26 -20t44 -6.5q21 0 42.5 4.5t40 11t34 14t25.5 12.5v398h133v-445h87v-248h-123v147z" />
<glyph horiz-adv-x="994" d="M245 -12q-62 0 -97 18t-52.5 47.5t-22 68.5t-4.5 81v343h133v-328q0 -30 3 -51t12 -34.5t26 -20t44 -6.5q45 0 82 15t61 27q-2 14 -2 27.5v27.5v343h132v-328q0 -30 3 -51t12.5 -34.5t26.5 -20t44 -6.5q21 0 42.5 4.5t40 11t34 14t25.5 12.5v398h132v-546h-132v59 q-14 -10 -33.5 -22t-43.5 -23t-51 -18.5t-57 -7.5q-67 0 -102.5 20.5t-52.5 55.5q-18 -13 -38 -26.5t-44.5 -24.5t-54 -18t-66.5 -7z" />
<glyph horiz-adv-x="1032" d="M885 0h-97v59q-14 -10 -33.5 -22t-43.5 -23t-51 -18.5t-57 -7.5q-67 0 -102.5 20.5t-52.5 55.5q-18 -13 -38 -26.5t-44.5 -24.5t-54 -18t-66.5 -7q-62 0 -97 18t-52.5 47.5t-22 68.5t-4.5 81v343h133v-328q0 -30 3 -51t12 -34.5t26 -20t44 -6.5q45 0 82 15t61 27 q-2 14 -2 27.5v27.5v343h132v-328q0 -30 3 -51t12.5 -34.5t26.5 -20t44 -6.5q21 0 42.5 4.5t40 11t34 14t25.5 12.5v398h132v-445h88v-248h-123v147z" />
<glyph horiz-adv-x="656" d="M396 -12q-57 0 -98 15.5t-67.5 42.5t-39 62.5t-12.5 75.5v261h-166v101h299v-356q0 -45 23 -71t68 -26q51 0 72.5 26t21.5 68q0 48 -33.5 67.5t-84.5 19.5h-61v101h69q56 0 101.5 -12.5t77.5 -36.5t49.5 -59.5t17.5 -81.5q0 -39 -15.5 -74.5t-45.5 -63t-74 -43.5 t-102 -16z" />
<glyph horiz-adv-x="544" d="M284 -12q-57 0 -98 15.5t-67.5 42.5t-39 62.5t-12.5 75.5v362h133v-356q0 -45 23 -71t68 -26q51 0 72.5 26t21.5 68q0 48 -33.5 67.5t-84.5 19.5h-60v101h69q56 0 101 -12.5t77 -36.5t49.5 -59.5t17.5 -81.5q0 -39 -15.5 -74.5t-45.5 -63t-74 -43.5t-102 -16z" />
<glyph horiz-adv-x="889" d="M574 -11q-116 0 -183.5 61t-78.5 173h-105v-223h-133v754h133v-429h106q16 112 88 173t181 61q136 0 201 -75.5t65 -210.5q0 -71 -20.5 -124t-57 -88.5t-87 -53.5t-109.5 -18zM581 96q39 0 64.5 13.5t40.5 37.5t20.5 56.5t5.5 69.5q0 35 -5.5 67.5t-20.5 57.5t-41 40 t-66 15t-66 -15t-41.5 -40t-21.5 -58t-6 -68q0 -38 6.5 -70t22.5 -55.5t42.5 -37t65.5 -13.5z" />
<glyph horiz-adv-x="468" d="M74 546h382v-102h-249v-444h-133v546z" />
<glyph horiz-adv-x="604" d="M300 -12q-59 0 -107 15.5t-83 47.5t-54 80.5t-19 113.5q0 42 12.5 78.5t34.5 66.5t51.5 52.5t64.5 37.5q-45 23 -69.5 57.5t-24.5 83.5q0 37 18.5 64.5t48.5 46t68.5 27.5t78.5 9q63 0 115.5 -10t92.5 -22l-24 -100q-5 1 -23 5t-42.5 8t-54 7t-57.5 3q-41 0 -65.5 -11 t-24.5 -39q0 -17 13.5 -30t36.5 -25.5t53 -26t64 -29.5q31 -16 61 -39.5t53.5 -54.5t38 -70t14.5 -85q0 -71 -22.5 -120.5t-60 -81t-86.5 -45.5t-102 -14zM307 96q34 0 59 12t40.5 33t23 49.5t7.5 61.5q0 41 -14.5 69t-37.5 47.5t-50.5 33t-53.5 25.5q-32 -15 -53 -35 t-34 -43t-18 -47.5t-5 -48.5q0 -73 32 -115t104 -42z" />
<glyph horiz-adv-x="663" d="M16 101h60q13 22 23 41.5t18 39.5t14 41.5t11 47.5q8 38 15 109.5t12 165.5h381v-445h88v-248h-123v147h-376v-147h-123v248zM417 101v344h-134q-6 -74 -11.5 -125.5t-13.5 -86.5q-8 -41 -18.5 -70t-26.5 -62h204z" />
<glyph horiz-adv-x="633" d="M74 546h485v-546h-133v445h-219v-445h-133v546z" />
<glyph horiz-adv-x="513" d="M190 444h-176v102h486v-102h-177v-444h-133v444z" />
<glyph unicode="0" horiz-adv-x="682" d="M622 363q0 -79 -15 -147t-48.5 -118t-88.5 -78.5t-135 -28.5q-81 0 -134 28.5t-84.5 76.5t-44 112t-12.5 135q0 69 13.5 135.5t46.5 118.5t89.5 84t142.5 32t139 -31.5t82 -82t39 -113t10 -123.5zM486 358q0 39 -3 82t-16.5 79t-42 59.5t-78.5 23.5q-54 0 -84 -24.5 t-44.5 -62t-18 -82.5t-3.5 -87q0 -45 4.5 -88.5t19.5 -78t43.5 -56t76.5 -21.5q52 0 81.5 23t43.5 60t17.5 82.5t3.5 90.5z" />
<glyph unicode="1" horiz-adv-x="384" d="M155 0v596h-141v104l275 8v-708h-134z" />
<glyph unicode="2" horiz-adv-x="552" d="M31 0v95q14 13 43 39.5t64 61.5t71.5 75t67 80t50 77t19.5 67q0 61 -29.5 85t-79.5 24q-54 0 -86.5 -11t-55.5 -21l-43 93q16 9 34 18t41.5 16t53 11.5t69.5 4.5q72 0 117 -19.5t70 -50t34 -68.5t9 -74q0 -56 -25 -108.5t-65 -101.5t-90 -95t-99 -89h310v-109h-480z" />
<glyph unicode="3" horiz-adv-x="519" d="M470 198q0 -62 -21.5 -102.5t-57 -64t-82 -32.5t-97.5 -9q-47 0 -82 3.5t-58 8.5q-27 5 -47 12l26 108q27 -8 65 -13t86 -5q30 0 54.5 4t42.5 15t27.5 29t9.5 47q0 61 -43 87.5t-141 32.5v95q78 5 115.5 30t37.5 80q0 41 -25.5 61t-70.5 20q-25 0 -47.5 -3t-39.5 -7 q-20 -4 -38 -10l-37 94q36 18 77 27.5t92 9.5q45 0 85 -10.5t69.5 -32.5t47 -54.5t17.5 -77.5q0 -36 -10 -63t-26 -46.5t-34.5 -32t-35.5 -20.5q28 -10 53.5 -25.5t45 -38t31 -51.5t11.5 -66z" />
<glyph unicode="4" horiz-adv-x="602" d="M463 161v-161h-133v161h-307v106l253 440h187v-438h105v-108h-105zM330 593l-178 -324h178v324z" />
<glyph unicode="5" horiz-adv-x="546" d="M502 222q0 -56 -20 -99.5t-55 -73t-83 -44.5t-104 -15q-69 0 -114.5 6.5t-77.5 17.5l32 109q42 -11 77.5 -14.5t81.5 -3.5q60 0 95 29t35 77q0 63 -31.5 89.5t-87.5 26.5q-11 0 -21 -0.5t-20 -0.5q-27 0 -59 -1t-77 -6v388h396v-108h-267v-167q17 1 31.5 1h31.5 q109 0 173 -54.5t64 -156.5z" />
<glyph unicode="6" horiz-adv-x="610" d="M321 -12q-63 0 -112 17.5t-82.5 55.5t-51 98t-17.5 146q0 103 23.5 179.5t66.5 127.5t104 76.5t135 25.5q39 0 74.5 -5.5t59.5 -14.5l-29 -104q-22 5 -49 8.5t-58 3.5q-44 0 -79.5 -17.5t-61 -54t-39.5 -94t-14 -137.5q0 -54 6.5 -92.5t22.5 -62.5t42.5 -35.5t65.5 -11.5 q51 0 80.5 35.5t29.5 91.5q0 68 -33 97t-86 29q-29 0 -53.5 -4.5t-48.5 -11.5q0 -1 1.5 16t3 37t3 36t1.5 15q22 7 47.5 11.5t57.5 4.5q115 0 177.5 -54t62.5 -166q0 -60 -19.5 -105.5t-53.5 -77t-79.5 -47.5t-97.5 -16z" />
<glyph unicode="7" horiz-adv-x="490" d="M167 -11l-113 33l297 573h-329v112h458v-93z" />
<glyph unicode="8" horiz-adv-x="607" d="M300 -12q-54 0 -99.5 11t-79.5 34t-53 58t-19 83q0 38 12.5 67.5t33 53t47 42t54.5 33.5q-24 15 -46 32t-38.5 37.5t-26.5 44t-10 52.5q0 45 17.5 79.5t49 57t74.5 34t94 11.5q52 0 94 -14t71 -38t44.5 -55.5t15.5 -65.5q0 -32 -11.5 -57t-31 -45.5t-44 -37.5t-51.5 -33 q30 -16 58.5 -34t51 -40t36.5 -49.5t14 -62.5q0 -50 -19 -87t-53 -62t-81.5 -37t-103.5 -12zM306 89q52 0 84.5 25t32.5 76q0 19 -10.5 37t-28.5 34.5t-41.5 32t-49.5 29.5q-23 -13 -44 -28t-36.5 -32.5t-24.5 -36.5t-9 -40q0 -48 35 -72.5t92 -24.5zM300 415q43 22 72.5 50 t29.5 65q0 38 -22.5 63t-70.5 25q-56 0 -80 -26t-24 -63q0 -35 27 -63t68 -51z" />
<glyph unicode="9" horiz-adv-x="611" d="M219 -9q-38 0 -72 5.5t-59 14.5l29 105q19 -5 47 -9t57 -4q104 0 150.5 74t46.5 213q2 117 -29 167t-106 50q-51 0 -80.5 -33.5t-29.5 -88.5q0 -37 8.5 -61.5t24.5 -39t38 -20.5t48 -6q29 0 56.5 5t48.5 11l-7 -103q-21 -6 -50 -11.5t-63 -5.5q-56 0 -100 12.5 t-74.5 39.5t-47 69t-16.5 101t20 104t54 75.5t79.5 46t97.5 15.5q124 0 193.5 -78t69.5 -240q0 -107 -23 -184t-66 -126.5t-105 -73.5t-140 -24z" />
<glyph unicode="&#x2122;" horiz-adv-x="827" d="M356 708h105l101 -259l105 259h101v-355h-91l3 192l-76 -192h-92l-68 189l2 -189h-90v355zM132 628h-111v80h313v-80h-111v-275h-91v275z" />
<glyph unicode="&#xae;" horiz-adv-x="552" d="M517 531q0 -54 -18.5 -96t-51 -70.5t-76 -43.5t-93.5 -15q-40 0 -83 11.5t-78.5 37.5t-58.5 69.5t-23 106.5q0 55 19 98t51.5 72t76.5 44.5t95 15.5q43 0 86 -12.5t77 -39.5t55.5 -71t21.5 -107zM465 531q0 48 -16 82.5t-42.5 57t-60 33.5t-68.5 11q-38 0 -73 -10 t-61 -32t-41.5 -56t-15.5 -82q0 -59 21.5 -95t52.5 -55.5t64.5 -26t57.5 -6.5q38 0 71.5 11.5t58 34.5t38.5 56t14 77zM397 409q-23 1 -41.5 6t-35.5 20q-15 14 -25 32t-21 39h-31v-91h-62v252l99 1q42 0 69 -20t27 -62q0 -22 -10.5 -40t-32.5 -29q5 -8 15 -22.5t18 -22.5 t16 -12l22 -11zM317 586q0 20 -8 30.5t-32 10.5h-35v-85h31q26 0 35 12t9 32z" />
<glyph unicode="&#xa9;" horiz-adv-x="831" d="M435 147q-49 0 -87 15.5t-64 42.5t-39.5 63.5t-13.5 78.5q0 46 13.5 83.5t39 64.5t63.5 41.5t86 14.5q38 0 69.5 -6.5t55.5 -21.5l-25 -68q-29 11 -50 14t-49 3q-24 0 -45.5 -7t-37 -21.5t-25 -37t-9.5 -54.5t10 -55t27 -38t40 -22t50 -7q29 0 48 2.5t45 11.5l23 -73 q-31 -13 -58 -18.5t-67 -5.5zM407 -12q-82 0 -146 26t-108.5 73.5t-67.5 114t-23 147.5q0 84 26.5 150t74.5 112t115 70t148 24q85 0 149.5 -27t107.5 -74.5t64.5 -113t21.5 -143.5q0 -82 -25 -148t-71.5 -113t-113.5 -72.5t-152 -25.5zM411 52q70 0 123 22.5t88 62.5 t52.5 94t17.5 117t-18.5 117t-53.5 93t-86 61t-117 22q-68 0 -120 -22t-87 -61t-53 -92t-18 -116q0 -61 17 -115t51.5 -94.5t85 -64.5t118.5 -24z" />
<glyph unicode="&#xa4;" horiz-adv-x="542" d="M48 180l62 62q-19 21 -30 49.5t-11 60.5q0 33 10.5 61t29.5 49l-61 62l52 51l68 -68q23 11 49 17.5t54 6.5q57 0 104 -24l67 69l53 -53l-61 -61q18 -21 28.5 -49.5t10.5 -60.5q0 -66 -41 -110l63 -62l-52 -52l-69 69q-46 -23 -103 -23q-56 0 -102 23l-69 -68zM271 271 q45 0 63 24.5t18 56.5t-18.5 57t-62.5 25q-43 0 -62.5 -24.5t-19.5 -57.5q0 -32 20 -56.5t62 -24.5z" />
<glyph unicode="&#x20ac;" horiz-adv-x="713" d="M479 -9q-144 0 -226.5 60.5t-110.5 166.5h-90v89h76q-1 11 -1 21v21v25t2 24h-77v88h91q29 112 110.5 170t222.5 58q38 0 67 -3t52 -8.5t41.5 -12.5t35.5 -15l-37 -99q-21 6 -37.5 10.5t-33.5 7.5t-38 5t-49 2q-139 2 -187 -115h234v-88h-256q-1 -9 -1.5 -18.5 t-0.5 -20.5q0 -27 3 -52h255v-89h-226q26 -54 75 -83t124 -29q26 0 46 1.5t37 4.5t32 6.5t31 7.5l31 -103q-21 -8 -40.5 -14t-42 -10t-49.5 -6t-63 -2z" />
<glyph unicode="$" horiz-adv-x="567" d="M531 197q0 -43 -14.5 -76.5t-39.5 -57.5t-59 -39.5t-73 -23.5l3 -100h-122l2 91q-72 2 -117.5 15t-78.5 31l40 100q22 -8 42.5 -14.5t42 -10.5t44.5 -6t51 -2q62 0 101.5 20.5t39.5 66.5q0 35 -25 57t-63 40t-82 36t-82 44t-63 64.5t-25 97.5q0 40 14 70t37.5 52t55 35.5 t67.5 19.5l-2 93h122l-2 -90q49 -5 83 -15.5t65 -24.5l-39 -96q-37 11 -72.5 19.5t-87.5 8.5q-108 0 -108 -70q0 -30 25.5 -50.5t64 -39t83 -38t83 -47t64 -66t25.5 -94.5z" />
<glyph unicode="&#xa2;" horiz-adv-x="533" d="M256 100q-56 8 -95 28.5t-64 55t-36.5 82.5t-11.5 112q0 112 54 184.5t153 92.5l-3 98h122l-3 -93q40 -4 67 -13t49 -21l-35 -98q-15 6 -27.5 10.5t-26.5 7.5t-30 4.5t-38 1.5q-31 0 -57.5 -9.5t-46 -30.5t-31 -54t-11.5 -80q0 -45 7 -78.5t26 -55t52.5 -32t86.5 -10.5 q34 0 57.5 4t50.5 8l19 -103q-26 -6 -52.5 -11t-59.5 -6l3 -94h-121z" />
<glyph unicode="&#xa3;" horiz-adv-x="545" d="M65 0v108q17 8 29 23.5t20.5 33.5t13 36.5t6.5 33.5h-86v108h92q1 21 0.5 44.5t-0.5 49.5v62q0 76 28 118t71.5 62t96 24.5t102.5 4.5l5 -110q-41 -3 -72.5 -5.5t-53 -11.5t-32 -28.5t-10.5 -56.5q1 -12 1 -24.5v-24.5q0 -28 -1 -54t-3 -50h162v-108h-175 q-7 -41 -18.5 -72.5t-29.5 -54.5h297v-108h-443z" />
<glyph unicode="&#xa5;" horiz-adv-x="717" d="M475 342h171v-109h-227v-91h227v-108h-226l-1 -34h-137l1 34h-212v108h212v91h-212v109h158l-196 365h157l166 -348l177 348h152z" />
<glyph unicode="&#x2116;" horiz-adv-x="1204" d="M967 293q-85 0 -130.5 44t-45.5 119q0 39 13 70t37 53t57 33.5t73 11.5q92 0 135 -44.5t43 -120.5q0 -41 -14 -72t-38.5 -52t-57.5 -31.5t-72 -10.5zM970 368q46 0 62 25t16 65q0 18 -3.5 34.5t-12.5 28.5t-24 19t-38 7q-44 0 -61.5 -26t-17.5 -64q0 -41 18 -65t61 -24z M799 195h350v-77h-350v77zM91 707h162l312 -534h2l-4 83v451h137v-707h-168l-305 523h-4l4 -86v-437h-136v707z" />
</font>
</defs>
</svg>
